<?xml version="1.0" encoding="UTF-8" standalone="no"?>
<!DOCTYPE svg PUBLIC "-//W3C//DTD SVG 1.1//EN"
 "http://www.w3.org/Graphics/SVG/1.1/DTD/svg11.dtd">
<!-- Generated by graphviz version 2.38.0 (20140413.2041)
 -->
<!-- Title: dependency&#45;cruiser output Pages: 1 -->
<svg width="475pt" height="346pt"
 viewBox="0.00 0.00 475.00 346.00" xmlns="http://www.w3.org/2000/svg" xmlns:xlink="http://www.w3.org/1999/xlink">
<g id="graph0" class="graph" transform="scale(1 1) rotate(0) translate(4 342)">
<title>dependency&#45;cruiser output</title>
<polygon fill="white" stroke="none" points="-4,4 -4,-342 471,-342 471,4 -4,4"/>
<g id="clust1" class="cluster"><title>cluster_src</title>
<path fill="#ffffff" stroke="black" stroke-width="2" d="M20,-8C20,-8 447,-8 447,-8 453,-8 459,-14 459,-20 459,-20 459,-318 459,-318 459,-324 453,-330 447,-330 447,-330 20,-330 20,-330 14,-330 8,-324 8,-318 8,-318 8,-20 8,-20 8,-14 14,-8 20,-8"/>
<text text-anchor="middle" x="233.5" y="-318.8" font-family="Helvetica,sans-Serif" font-weight="bold" font-size="9.00">src</text>
</g>
<g id="clust2" class="cluster"><title>cluster_src/components</title>
<path fill="#ffffff" stroke="black" stroke-width="2" d="M157,-16C157,-16 439,-16 439,-16 445,-16 451,-22 451,-28 451,-28 451,-266 451,-266 451,-272 445,-278 439,-278 439,-278 157,-278 157,-278 151,-278 145,-272 145,-266 145,-266 145,-28 145,-28 145,-22 151,-16 157,-16"/>
<text text-anchor="middle" x="298" y="-266.8" font-family="Helvetica,sans-Serif" font-weight="bold" font-size="9.00">components</text>
</g>
<g id="clust3" class="cluster"><title>cluster_src/components/dashBoad</title>
<path fill="#ffffff" stroke="black" stroke-width="2" d="M165,-84C165,-84 426,-84 426,-84 432,-84 438,-90 438,-96 438,-96 438,-184 438,-184 438,-190 432,-196 426,-196 426,-196 165,-196 165,-196 159,-196 153,-190 153,-184 153,-184 153,-96 153,-96 153,-90 159,-84 165,-84"/>
<text text-anchor="middle" x="295.5" y="-184.8" font-family="Helvetica,sans-Serif" font-weight="bold" font-size="9.00">dashBoad</text>
</g>
<g id="clust4" class="cluster"><title>cluster_src/components/staffSide</title>
<path fill="#ffffff" stroke="black" stroke-width="2" d="M179,-24C179,-24 225,-24 225,-24 231,-24 237,-30 237,-36 237,-36 237,-64 237,-64 237,-70 231,-76 225,-76 225,-76 179,-76 179,-76 173,-76 167,-70 167,-64 167,-64 167,-36 167,-36 167,-30 173,-24 179,-24"/>
<text text-anchor="middle" x="202" y="-64.8" font-family="Helvetica,sans-Serif" font-weight="bold" font-size="9.00">staffSide</text>
</g>
<!-- src/App.js -->
<g id="node1" class="node"><title>src/App.js</title>
<g id="a_node1"><a xlink:href="src/App.js" xlink:title="App.js">
<path fill="#ffffcc" stroke="black" d="M131,-170C131,-170 89,-170 89,-170 86,-170 83,-167 83,-164 83,-164 83,-158 83,-158 83,-155 86,-152 89,-152 89,-152 131,-152 131,-152 134,-152 137,-155 137,-158 137,-158 137,-164 137,-164 137,-167 134,-170 131,-170"/>
<text text-anchor="middle" x="110" y="-158.8" font-family="Helvetica,sans-Serif" font-size="9.00">App.js</text>
</a>
</g>
</g>
<!-- src/components/dashBoad/downloadInfo.js -->
<g id="node2" class="node"><title>src/components/dashBoad/downloadInfo.js</title>
<g id="a_node2"><a xlink:href="src/components/dashBoad/downloadInfo.js" xlink:title="downloadInfo.js">
<path fill="#ffffcc" stroke="black" d="M237,-170C237,-170 167,-170 167,-170 164,-170 161,-167 161,-164 161,-164 161,-158 161,-158 161,-155 164,-152 167,-152 167,-152 237,-152 237,-152 240,-152 243,-155 243,-158 243,-158 243,-164 243,-164 243,-167 240,-170 237,-170"/>
<text text-anchor="middle" x="202" y="-158.8" font-family="Helvetica,sans-Serif" font-size="9.00">downloadInfo.js</text>
</a>
</g>
</g>
<!-- src/App.js&#45;&gt;src/components/dashBoad/downloadInfo.js -->
<g id="edge1" class="edge"><title>src/App.js&#45;&gt;src/components/dashBoad/downloadInfo.js</title>
<path fill="none" stroke="#000000" stroke-width="2" stroke-opacity="0.200000" d="M137.032,-161C142.639,-161 148.726,-161 154.842,-161"/>
<polygon fill="#000000" fill-opacity="0.200000" stroke="#000000" stroke-width="2" stroke-opacity="0.200000" points="154.951,-163.1 160.951,-161 154.951,-158.9 154.951,-163.1"/>
</g>
<!-- src/components/dashBoad/queue.js -->
<g id="node3" class="node"><title>src/components/dashBoad/queue.js</title>
<g id="a_node3"><a xlink:href="src/components/dashBoad/queue.js" xlink:title="queue.js">
<path fill="#ffffcc" stroke="black" d="M223,-140C223,-140 181,-140 181,-140 178,-140 175,-137 175,-134 175,-134 175,-128 175,-128 175,-125 178,-122 181,-122 181,-122 223,-122 223,-122 226,-122 229,-125 229,-128 229,-128 229,-134 229,-134 229,-137 226,-140 223,-140"/>
<text text-anchor="middle" x="202" y="-128.8" font-family="Helvetica,sans-Serif" font-size="9.00">queue.js</text>
</a>
</g>
</g>
<!-- src/App.js&#45;&gt;src/components/dashBoad/queue.js -->
<g id="edge2" class="edge"><title>src/App.js&#45;&gt;src/components/dashBoad/queue.js</title>
<path fill="none" stroke="#000000" stroke-width="2" stroke-opacity="0.200000" d="M130.211,-151.91C134.986,-149.822 140.132,-147.714 145,-146 152.641,-143.309 161.012,-140.828 168.9,-138.69"/>
<polygon fill="#000000" fill-opacity="0.200000" stroke="#000000" stroke-width="2" stroke-opacity="0.200000" points="169.554,-140.689 174.817,-137.124 168.48,-136.629 169.554,-140.689"/>
</g>
<!-- src/components/dashBoad/row.js -->
<g id="node4" class="node"><title>src/components/dashBoad/row.js</title>
<g id="a_node4"><a xlink:href="src/components/dashBoad/row.js" xlink:title="row.js">
<path fill="#ffffcc" stroke="black" d="M223,-110C223,-110 181,-110 181,-110 178,-110 175,-107 175,-104 175,-104 175,-98 175,-98 175,-95 178,-92 181,-92 181,-92 223,-92 223,-92 226,-92 229,-95 229,-98 229,-98 229,-104 229,-104 229,-107 226,-110 223,-110"/>
<text text-anchor="middle" x="202" y="-98.8" font-family="Helvetica,sans-Serif" font-size="9.00">row.js</text>
</a>
</g>
</g>
<!-- src/App.js&#45;&gt;src/components/dashBoad/row.js -->
<g id="edge3" class="edge"><title>src/App.js&#45;&gt;src/components/dashBoad/row.js</title>
<path fill="none" stroke="#000000" stroke-width="2" stroke-opacity="0.200000" d="M115.454,-151.961C120.977,-141.698 131.356,-125.189 145,-116 152.051,-111.251 160.546,-108.002 168.764,-105.782"/>
<polygon fill="#000000" fill-opacity="0.200000" stroke="#000000" stroke-width="2" stroke-opacity="0.200000" points="169.631,-107.732 174.966,-104.276 168.64,-103.651 169.631,-107.732"/>
</g>
<!-- src/index.css -->
<g id="node5" class="node"><title>src/index.css</title>
<g id="a_node5"><a xlink:href="src/index.css" xlink:title="index.css">
<path fill="#ffffcc" stroke="black" d="M224,-304C224,-304 180,-304 180,-304 177,-304 174,-301 174,-298 174,-298 174,-292 174,-292 174,-289 177,-286 180,-286 180,-286 224,-286 224,-286 227,-286 230,-289 230,-292 230,-292 230,-298 230,-298 230,-301 227,-304 224,-304"/>
<text text-anchor="middle" x="202" y="-292.8" font-family="Helvetica,sans-Serif" font-size="9.00">index.css</text>
</a>
</g>
</g>
<!-- src/App.js&#45;&gt;src/index.css -->
<g id="edge4" class="edge"><title>src/App.js&#45;&gt;src/index.css</title>
<path fill="none" stroke="#000000" stroke-width="2" stroke-opacity="0.200000" d="M117.186,-170.21C132.6,-193.16 172.808,-253.026 191.362,-280.651"/>
<polygon fill="#000000" fill-opacity="0.200000" stroke="#000000" stroke-width="2" stroke-opacity="0.200000" points="189.682,-281.915 194.771,-285.725 193.169,-279.573 189.682,-281.915"/>
</g>
<!-- src/components/dashBoad/QueueItem.js -->
<g id="node6" class="node"><title>src/components/dashBoad/QueueItem.js</title>
<g id="a_node6"><a xlink:href="src/components/dashBoad/QueueItem.js" xlink:title="QueueItem.js">
<path fill="#ffffcc" stroke="black" d="M333,-155C333,-155 273,-155 273,-155 270,-155 267,-152 267,-149 267,-149 267,-143 267,-143 267,-140 270,-137 273,-137 273,-137 333,-137 333,-137 336,-137 339,-140 339,-143 339,-143 339,-149 339,-149 339,-152 336,-155 333,-155"/>
<text text-anchor="middle" x="303" y="-143.8" font-family="Helvetica,sans-Serif" font-size="9.00">QueueItem.js</text>
</a>
</g>
</g>
<!-- src/components/dashBoad/queue.js&#45;&gt;src/components/dashBoad/QueueItem.js -->
<g id="edge8" class="edge"><title>src/components/dashBoad/queue.js&#45;&gt;src/components/dashBoad/QueueItem.js</title>
<path fill="none" stroke="#000000" stroke-width="2" stroke-opacity="0.200000" d="M229.011,-134.941C238.685,-136.407 249.917,-138.109 260.627,-139.731"/>
<polygon fill="#000000" fill-opacity="0.200000" stroke="#000000" stroke-width="2" stroke-opacity="0.200000" points="260.61,-141.853 266.857,-140.675 261.239,-137.7 260.61,-141.853"/>
</g>
<!-- src/components/dashBoad/beerComponent.js -->
<g id="node7" class="node"><title>src/components/dashBoad/beerComponent.js</title>
<g id="a_node7"><a xlink:href="src/components/dashBoad/beerComponent.js" xlink:title="beerComponent.js">
<path fill="#ffffcc" stroke="black" d="M344,-125C344,-125 262,-125 262,-125 259,-125 256,-122 256,-119 256,-119 256,-113 256,-113 256,-110 259,-107 262,-107 262,-107 344,-107 344,-107 347,-107 350,-110 350,-113 350,-113 350,-119 350,-119 350,-122 347,-125 344,-125"/>
<text text-anchor="middle" x="303" y="-113.8" font-family="Helvetica,sans-Serif" font-size="9.00">beerComponent.js</text>
</a>
</g>
</g>
<!-- src/components/dashBoad/row.js&#45;&gt;src/components/dashBoad/beerComponent.js -->
<g id="edge9" class="edge"><title>src/components/dashBoad/row.js&#45;&gt;src/components/dashBoad/beerComponent.js</title>
<path fill="none" stroke="#000000" stroke-width="2" stroke-opacity="0.200000" d="M229.011,-104.941C235.456,-105.918 242.593,-106.999 249.806,-108.092"/>
<polygon fill="#000000" fill-opacity="0.200000" stroke="#000000" stroke-width="2" stroke-opacity="0.200000" points="249.622,-110.188 255.869,-109.011 250.252,-106.035 249.622,-110.188"/>
</g>
<!-- src/components/mostPopular.js -->
<g id="node8" class="node"><title>src/components/mostPopular.js</title>
<g id="a_node8"><a xlink:href="src/components/mostPopular.js" xlink:title="mostPopular.js">
<path fill="#ffffcc" stroke="black" d="M437,-222C437,-222 369,-222 369,-222 366,-222 363,-219 363,-216 363,-216 363,-210 363,-210 363,-207 366,-204 369,-204 369,-204 437,-204 437,-204 440,-204 443,-207 443,-210 443,-210 443,-216 443,-216 443,-219 440,-222 437,-222"/>
<text text-anchor="middle" x="403" y="-210.8" font-family="Helvetica,sans-Serif" font-size="9.00">mostPopular.js</text>
</a>
</g>
</g>
<!-- src/components/dashBoad/beerComponent.js&#45;&gt;src/components/mostPopular.js -->
<g id="edge5" class="edge"><title>src/components/dashBoad/beerComponent.js&#45;&gt;src/components/mostPopular.js</title>
<path fill="none" stroke="#000000" stroke-width="2" stroke-opacity="0.200000" d="M343.098,-125.166C345.654,-126.804 348.001,-128.731 350,-131 370.341,-154.087 343.001,-175.616 363,-199 363.199,-199.232 363.402,-199.461 363.608,-199.686"/>
<polygon fill="#000000" fill-opacity="0.200000" stroke="#000000" stroke-width="2" stroke-opacity="0.200000" points="362.55,-201.546 368.468,-203.869 365.291,-198.363 362.55,-201.546"/>
</g>
<!-- src/components/popular.js -->
<g id="node9" class="node"><title>src/components/popular.js</title>
<g id="a_node9"><a xlink:href="src/components/popular.js" xlink:title="popular.js">
<path fill="#ffffcc" stroke="black" d="M426,-252C426,-252 380,-252 380,-252 377,-252 374,-249 374,-246 374,-246 374,-240 374,-240 374,-237 377,-234 380,-234 380,-234 426,-234 426,-234 429,-234 432,-237 432,-240 432,-240 432,-246 432,-246 432,-249 429,-252 426,-252"/>
<text text-anchor="middle" x="403" y="-240.8" font-family="Helvetica,sans-Serif" font-size="9.00">popular.js</text>
</a>
</g>
</g>
<!-- src/components/dashBoad/beerComponent.js&#45;&gt;src/components/popular.js -->
<g id="edge6" class="edge"><title>src/components/dashBoad/beerComponent.js&#45;&gt;src/components/popular.js</title>
<path fill="none" stroke="#000000" stroke-width="2" stroke-opacity="0.200000" d="M343.239,-125.045C345.764,-126.709 348.065,-128.676 350,-131 377.835,-164.424 336.043,-193.864 363,-228 364.619,-230.05 366.553,-231.819 368.683,-233.347"/>
<polygon fill="#000000" fill-opacity="0.200000" stroke="#000000" stroke-width="2" stroke-opacity="0.200000" points="367.721,-235.219 373.949,-236.492 369.875,-231.613 367.721,-235.219"/>
</g>
<!-- src/components/dashBoad/tap.js -->
<g id="node10" class="node"><title>src/components/dashBoad/tap.js</title>
<g id="a_node10"><a xlink:href="src/components/dashBoad/tap.js" xlink:title="tap.js">
<path fill="#ffffcc" stroke="black" d="M424,-125C424,-125 382,-125 382,-125 379,-125 376,-122 376,-119 376,-119 376,-113 376,-113 376,-110 379,-107 382,-107 382,-107 424,-107 424,-107 427,-107 430,-110 430,-113 430,-113 430,-119 430,-119 430,-122 427,-125 424,-125"/>
<text text-anchor="middle" x="403" y="-113.8" font-family="Helvetica,sans-Serif" font-size="9.00">tap.js</text>
</a>
</g>
</g>
<!-- src/components/dashBoad/beerComponent.js&#45;&gt;src/components/dashBoad/tap.js -->
<g id="edge7" class="edge"><title>src/components/dashBoad/beerComponent.js&#45;&gt;src/components/dashBoad/tap.js</title>
<path fill="none" stroke="#000000" stroke-width="2" stroke-opacity="0.200000" d="M350.13,-116C356.758,-116 363.456,-116 369.737,-116"/>
<polygon fill="#000000" fill-opacity="0.200000" stroke="#000000" stroke-width="2" stroke-opacity="0.200000" points="369.861,-118.1 375.861,-116 369.86,-113.9 369.861,-118.1"/>
</g>
<!-- src/components/staffSide/login.js -->
<g id="node11" class="node"><title>src/components/staffSide/login.js</title>
<g id="a_node11"><a xlink:href="src/components/staffSide/login.js" xlink:title="login.js">
<path fill="#ccffcc" stroke="black" d="M223,-50C223,-50 181,-50 181,-50 178,-50 175,-47 175,-44 175,-44 175,-38 175,-38 175,-35 178,-32 181,-32 181,-32 223,-32 223,-32 226,-32 229,-35 229,-38 229,-38 229,-44 229,-44 229,-47 226,-50 223,-50"/>
<text text-anchor="middle" x="202" y="-38.8" font-family="Helvetica,sans-Serif" font-size="9.00">login.js</text>
</a>
</g>
</g>
<!-- src/index.js -->
<g id="node12" class="node"><title>src/index.js</title>
<g id="a_node12"><a xlink:href="src/index.js" xlink:title="index.js">
<path fill="#ffffcc" stroke="black" d="M64,-181C64,-181 22,-181 22,-181 19,-181 16,-178 16,-175 16,-175 16,-169 16,-169 16,-166 19,-163 22,-163 22,-163 64,-163 64,-163 67,-163 70,-166 70,-169 70,-169 70,-175 70,-175 70,-178 67,-181 64,-181"/>
<text text-anchor="middle" x="43" y="-169.8" font-family="Helvetica,sans-Serif" font-size="9.00">index.js</text>
</a>
</g>
</g>
<!-- src/index.js&#45;&gt;src/App.js -->
<g id="edge10" class="edge"><title>src/index.js&#45;&gt;src/App.js</title>
<path fill="none" stroke="#000000" stroke-width="2" stroke-opacity="0.200000" d="M70.0635,-167.589C72.3151,-167.208 74.6096,-166.82 76.9015,-166.432"/>
<polygon fill="#000000" fill-opacity="0.200000" stroke="#000000" stroke-width="2" stroke-opacity="0.200000" points="77.3652,-168.484 82.9307,-165.412 76.6644,-164.342 77.3652,-168.484"/>
</g>
<!-- src/index.js&#45;&gt;src/index.css -->
<g id="edge11" class="edge"><title>src/index.js&#45;&gt;src/index.css</title>
<path fill="none" stroke="#000000" stroke-width="2" stroke-opacity="0.200000" d="M55.5446,-181.044C83.1043,-202.636 152.808,-257.244 184.663,-282.201"/>
<polygon fill="#000000" fill-opacity="0.200000" stroke="#000000" stroke-width="2" stroke-opacity="0.200000" points="183.42,-283.895 189.438,-285.942 186.01,-280.589 183.42,-283.895"/>
</g>
</g>
</svg>
