<svg xmlns="http://www.w3.org/2000/svg" viewBox="0 0 456.14 443.45"><defs><style>.cls-1{fill:#ededed;}.cls-2{fill:#f6f6f6;}</style></defs><g id="Layer_2" data-name="Layer 2"><g id="Layer_1-2" data-name="Layer 1"><path class="cls-1" d="M153.36,386.66a3.26,3.26,0,0,0-1-1.29,3.15,3.15,0,0,0-1.94-.58,3.2,3.2,0,0,0-2,.58,3.3,3.3,0,0,0-1,1.29,4.92,4.92,0,0,0-.42,1.84v10.13a4.94,4.94,0,0,0,.42,1.87,3.21,3.21,0,0,0,1,1.26,3,3,0,0,0,2,.59,3,3,0,0,0,1.94-.59,3.18,3.18,0,0,0,1-1.26,4.94,4.94,0,0,0,.42-1.87V388.5A4.92,4.92,0,0,0,153.36,386.66Zm-2.11,12a1.62,1.62,0,0,1-.09.63.74.74,0,0,1-.75.63.7.7,0,0,1-.49-.18,1.52,1.52,0,0,1-.35-1.08V388.5a1.81,1.81,0,0,1,.09-.63.8.8,0,0,1,.75-.63.69.69,0,0,1,.51.19,1.53,1.53,0,0,1,.33,1.07Z"/><path class="cls-1" d="M161,385v9.76h-.14l-.21-.8-2.45-9h-2.25v17.19h2.31v-9.75h.15l.21.8,2.45,9h2.25V385Z"/><path class="cls-1" d="M176.2,386.75c-.68-1.31-1.94-1.78-4.28-1.78h-2v17.19h2c2.34,0,3.6-.47,4.28-1.78s.75-3.43.75-6.8S176.86,388.06,176.2,386.75Zm-1.89,10.13a7.61,7.61,0,0,1-.24,1.82c-.25.84-.74.94-1.61.94V387.5c.87,0,1.36.09,1.61.91a8,8,0,0,1,.24,1.83c0,.81,0,1.91,0,3.32S174.33,396.06,174.31,396.88Z"/><path class="cls-1" d="M184.49,393.84c1-.66,1.41-2.2,1.41-3.91,0-3.25-1.29-5-4.31-5h-2.52v17.19h2.52v-7.25h.68l1.31,7.25h2.53Zm-1.7-1.64a1.76,1.76,0,0,1-1.2.37v-5.09a1.74,1.74,0,0,1,1.2.35,3.9,3.9,0,0,1,0,4.37Z"/><path class="cls-1" d="M193.42,385h-3.08l-2.6,17.19h2.46l.47-3.51h2.43l.46,3.51H196ZM191,396l.72-5.43.07-.44H192l.07.44.73,5.43Z"/><path class="cls-1" d="M201.87,385v13.66a1.6,1.6,0,0,1-.1.63.73.73,0,0,1-.75.63.7.7,0,0,1-.49-.18,1.52,1.52,0,0,1-.35-1.08V385h-2.52v13.66a4.59,4.59,0,0,0,.42,1.87,3.09,3.09,0,0,0,1,1.26,3,3,0,0,0,2,.59,3,3,0,0,0,1.95-.59,3.24,3.24,0,0,0,1-1.26,4.59,4.59,0,0,0,.42-1.87V385Z"/><path class="cls-1" d="M213.24,391.15V388.5a4.56,4.56,0,0,0-.42-1.84,3.23,3.23,0,0,0-1-1.29,3.15,3.15,0,0,0-1.94-.58,3.25,3.25,0,0,0-2,.58,3.18,3.18,0,0,0-1,1.29,4.56,4.56,0,0,0-.42,1.84v10.13a4.78,4.78,0,0,0,.28,1.87,3.13,3.13,0,0,0,.89,1.26,2.53,2.53,0,0,0,1.8.59,2.48,2.48,0,0,0,2-1l.31.82h1.49V393.6h-3.53v2.13h1v3.11a1.62,1.62,0,0,1-.09.63.75.75,0,0,1-.75.63.68.68,0,0,1-.49-.18,1.48,1.48,0,0,1-.35-1.08V388.5a1.81,1.81,0,0,1,.09-.63.78.78,0,0,1,.75-.63.71.71,0,0,1,.51.19,1.53,1.53,0,0,1,.33,1.07v2.65Z"/><path class="cls-1" d="M220,385v7.11h-2V385h-2.53v17.19H218v-7.48h2v7.48h2.53V385Z"/><path class="cls-1" d="M224.26,385v2.6h2.39v14.59h2.52V387.57h2.39V385Z"/><path class="cls-1" d="M241.61,392.71c-.49-.72-1-1.4-1.35-2a3.88,3.88,0,0,1-.64-1.85c0-1,.21-1.69.87-1.71.4,0,.65.33.82.8a5.74,5.74,0,0,1,.18,1.68l2.48-.23a6.7,6.7,0,0,0-.63-3,2.93,2.93,0,0,0-2.9-1.52,3.06,3.06,0,0,0-2.55,1.31,4.76,4.76,0,0,0-.75,2.71,5,5,0,0,0,.21,1.38,9.59,9.59,0,0,0,1.25,2.66q.84,1.31,1.59,2.37c.23.35.44.7.65,1a4.27,4.27,0,0,1,.65,1.89c0,1.1-.28,1.89-1,1.89-.54,0-.82-.37-1-.93a6.76,6.76,0,0,1-.21-2l-2.48.23a7.24,7.24,0,0,0,.64,3.46,3.68,3.68,0,0,0,5.82.24,5.4,5.4,0,0,0,.72-3,5.86,5.86,0,0,0-.75-2.69A25.73,25.73,0,0,0,241.61,392.71Z"/><path class="cls-1" d="M245.93,385v17.19h2.52V385Z"/><path class="cls-1" d="M255.74,385v9.76h-.14l-.21-.8-2.46-9h-2.24v17.19H253v-9.75h.14l.21.8,2.46,9h2.24V385Z"/><path class="cls-1" d="M266.94,390.87V388.5a4.56,4.56,0,0,0-.42-1.84,3.26,3.26,0,0,0-1-1.29,3.13,3.13,0,0,0-1.94-.58,3.22,3.22,0,0,0-2,.58,3.18,3.18,0,0,0-1,1.29,4.56,4.56,0,0,0-.42,1.84v10.13a4.59,4.59,0,0,0,.42,1.87,3.09,3.09,0,0,0,1,1.26,3,3,0,0,0,2,.59,3,3,0,0,0,1.94-.59,3.18,3.18,0,0,0,1-1.26,4.59,4.59,0,0,0,.42-1.87v-2.36h-2.36v2.36a1.44,1.44,0,0,1-.1.63.8.8,0,0,1-.86.63.7.7,0,0,1-.49-.18,1.59,1.59,0,0,1-.4-1.08V388.5a2.43,2.43,0,0,1,.12-.63.83.83,0,0,1,.77-.63.79.79,0,0,1,.58.19,1.46,1.46,0,0,1,.38,1.07v2.37Z"/><path class="cls-1" d="M274.75,387.57V385H269v17.19h5.77v-2.59H271.5v-4.73h2.34v-2.76H271.5v-4.51Z"/><path class="cls-1" d="M283,385a4,4,0,0,1-.56.89,3.88,3.88,0,0,1-2.13,1.22v1.61H282v13.47h2.53V385Z"/><path class="cls-1" d="M291.94,393.09a4.52,4.52,0,0,0,1.17-3.16v-1.45a4.79,4.79,0,0,0-.42-2,2.88,2.88,0,0,0-2.81-1.68,2.84,2.84,0,0,0-2.78,1.68,5,5,0,0,0-.45,2v1.45a4.52,4.52,0,0,0,1.17,3.16,4.71,4.71,0,0,0-1.31,3.39v2a7.16,7.16,0,0,0,.14,1.19,3.65,3.65,0,0,0,.89,1.76,3.46,3.46,0,0,0,4.68,0,3.65,3.65,0,0,0,.89-1.76,7.16,7.16,0,0,0,.14-1.19v-2A4.71,4.71,0,0,0,291.94,393.09Zm-2.62-5.57c.09-.35.28-.51.56-.51s.54.19.63.58a10.77,10.77,0,0,1,.12,1.78,12.18,12.18,0,0,1-.12,2c-.09.43-.3.64-.63.64s-.54-.21-.61-.64A12.42,12.42,0,0,1,289.32,387.52Zm1.36,11.84a.76.76,0,0,1-.8.67.69.69,0,0,1-.7-.58,14,14,0,0,1-.07-4.26c.07-.49.33-.75.77-.75s.7.26.8.75a17.85,17.85,0,0,1,.11,2.29A12.86,12.86,0,0,1,290.68,399.36Z"/><path class="cls-1" d="M294.79,385v2.51h3.79L296,402.16h2.62l2.53-14.66V385Z"/><path class="cls-1" d="M305.61,387.43a.57.57,0,0,1,.61-.44c.37,0,.56.16.65.6a12.91,12.91,0,0,1,.12,2.34h2.52v-1.07a5.69,5.69,0,0,0-.46-2.51,3.35,3.35,0,0,0-5.66,0,5.58,5.58,0,0,0-.47,2.51v9.77a4.75,4.75,0,0,0,.49,2.15,2.89,2.89,0,0,0,2.81,1.57,2.93,2.93,0,0,0,2.8-1.57,4.62,4.62,0,0,0,.49-2.15v-3.51a5.13,5.13,0,0,0-.42-2.17,2.49,2.49,0,0,0-3.65-1v-3.06A4.17,4.17,0,0,1,305.61,387.43Zm.61,6a.84.84,0,0,1,.77.77v5.15a.84.84,0,0,1-.77.77.8.8,0,0,1-.78-.77v-5.22A.78.78,0,0,1,306.22,393.46Z"/><path class="cls-1" d="M161.42,177.56a42.82,42.82,0,0,0,16.07-32.94c0-16.38-10.6-31-34.22-29.29C112.91,117.53,85,144.94,85,172.51c0,13.39,6.58,17.91,17.18,17.14-.16-1.79-2.24-3.24-2.24-13.43,0-33,21.36-50.1,40.16-51.46,15.26-1.11,21.2,8.65,21.2,20,0,15-10.28,33.12-23.13,34l-1,.07L144.72,134l-23.78,5.72L99.09,268.4l23.14-1.68,13.17-77.48a67.17,67.17,0,0,1,7.39-1.14c11.73-.85,15.26,10.29,15.26,24.27,0,15.19-4.18,36.27-15.91,37.12-3.69.27-6.74-1.51-10.76-6.41a40.72,40.72,0,0,0-2.08,11.74c0,12.19,9,14.14,15.9,13.64,26.83-1.95,35.18-40.92,35.18-60.1C180.38,193.37,175.08,180,161.42,177.56Z"/><path class="cls-1" d="M247.69,208.71c-.69,1-1.37,2-2.06,3-7.32,10.5-14.76,18.4-26.37,19.24-7.72.56-11.57-2.36-11.57-15.94,0-2.4.16-5.21.32-8,19.28-2.8,37-21.86,37-44.84,0-10-3.37-18.94-17.67-17.9-32.94,2.39-43.38,51.3-43.38,74.28,0,22.58,10,31.05,25.06,29.95,16.41-1.18,28.27-13,37-27.06a134.89,134.89,0,0,0,7.15-13.11Zm-19.12-54c3.05-.23,4,2.9,4,7.9,0,16.58-10.93,32.76-23.29,34.66C212.51,177.29,220.38,155.34,228.57,154.75Z"/><path class="cls-1" d="M309.38,204.24l0,0c-8,12-15.74,21.29-28.42,22.21-7.71.56-11.57-2.36-11.57-15.94,0-2.4.17-5.21.33-8,19.27-2.8,36.95-21.86,36.95-44.84,0-10-3.38-18.94-17.68-17.9-31.85,2.3-42.66,48.14-43.34,71.93,0,.81,0,1.6,0,2.35a64.72,64.72,0,0,0,.4,7.36c2,17.07,11.33,23.56,24.66,22.59,16-1.16,27.69-12.44,36.39-26a134.75,134.75,0,0,0,7.79-14.14Zm-19.12-54c3.05-.22,4,2.91,4,7.91,0,16.58-10.93,32.76-23.3,34.66C274.19,172.82,282.07,150.87,290.26,150.27Z"/><path class="cls-1" d="M360.78,136.37c-7.71.56-13.81,7.4-19.44,13.8l2.09-12.54-23.13,1.68-10.94,65L307.05,218l-3.78,22.47,23.13-1.68,12.85-76.86c4-4.89,6.91-8.09,11.73-8.44s.32,13.16,9.32,12.51c7.87-.57,11.56-8.43,11.56-15.42C371.86,143,368,135.85,360.78,136.37Z"/><path class="cls-1" d="M451.76,371.1c-3.28-3.77-12.89-9.43-40.86-12.38l-.41,11.59a8.94,8.94,0,0,1-.06,1.35c-.84,6.74-8.86,7.24-17.41,6.76-9.63-.53-15.33,1.76-15.59,3.56a4.2,4.2,0,0,0,.91,3.89,9.82,9.82,0,0,0,4.45,2.36h0l.73.21.15,0,.47.11.18,0,.58.13.55.11.83.15.6.09,1.35.19,1.31.14.21,0c.42,0,.85.08,1.3.1l1.62.1c2.9.14,6.35.14,10.46-.06.94,0,1.93-.1,2.95-.17l2.57-.18c35.77-2.82,43.55-13.53,44.56-15.23A4.91,4.91,0,0,0,451.76,371.1Zm-46-1.7c-1.6-1.78-8-3.81-29.32-3.42a30.54,30.54,0,0,1,1.36,10.18c4.06-1.86,10.11-2.36,15.48-2.06,10.8.6,12.6-1.11,12.87-2.9l0-.86A1.58,1.58,0,0,0,405.74,369.4ZM371,356.79c-22.05-.13-54.25,1.54-82.71,3.4L295,362.9a2.16,2.16,0,0,1,.16,3.94c-8.12,4.06-10.76,8.61-11.57,11.62,19.72-9.69,61.31-15.64,88.32-16.67a2.12,2.12,0,0,1,1.27-.05l3.18-.08c18.49-.35,26.29,1.08,30,2.94l.23-6.3C396.86,357.43,385.13,356.88,371,356.79ZM96.14,326.38a1.44,1.44,0,0,0-1-.36,1.51,1.51,0,0,0-1.44,1.21,3.54,3.54,0,0,0-.18,1.21l0,19.41a2.88,2.88,0,0,0,.66,2.06,1.32,1.32,0,0,0,1,.36,1.41,1.41,0,0,0,1.43-1.21,3.16,3.16,0,0,0,.19-1.21l.05-19.4A3,3,0,0,0,96.14,326.38Zm0,0a1.44,1.44,0,0,0-1-.36,1.51,1.51,0,0,0-1.44,1.21,3.54,3.54,0,0,0-.18,1.21l0,19.41a2.88,2.88,0,0,0,.66,2.06,1.32,1.32,0,0,0,1,.36,1.41,1.41,0,0,0,1.43-1.21,3.16,3.16,0,0,0,.19-1.21l.05-19.4A3,3,0,0,0,96.14,326.38Zm0,0a1.44,1.44,0,0,0-1-.36,1.51,1.51,0,0,0-1.44,1.21,3.54,3.54,0,0,0-.18,1.21l0,19.41a2.88,2.88,0,0,0,.66,2.06,1.32,1.32,0,0,0,1,.36,1.41,1.41,0,0,0,1.43-1.21,3.16,3.16,0,0,0,.19-1.21l.05-19.4A3,3,0,0,0,96.14,326.38Zm34.11,5.32-.16-.84h-.27l-.1.85-1,10.45L132,342Zm0,0-.16-.84h-.27l-.1.85-1,10.45L132,342Zm-34.11-5.32a1.44,1.44,0,0,0-1-.36,1.51,1.51,0,0,0-1.44,1.21,3.54,3.54,0,0,0-.18,1.21l0,19.41a2.88,2.88,0,0,0,.66,2.06,1.32,1.32,0,0,0,1,.36,1.41,1.41,0,0,0,1.43-1.21,3.16,3.16,0,0,0,.19-1.21l.05-19.4A3,3,0,0,0,96.14,326.38Zm0,0a1.44,1.44,0,0,0-1-.36,1.51,1.51,0,0,0-1.44,1.21,3.54,3.54,0,0,0-.18,1.21l0,19.41a2.88,2.88,0,0,0,.66,2.06,1.32,1.32,0,0,0,1,.36,1.41,1.41,0,0,0,1.43-1.21,3.16,3.16,0,0,0,.19-1.21l.05-19.4A3,3,0,0,0,96.14,326.38Zm34.11,5.32-.16-.84h-.27l-.1.85-1,10.45L132,342Zm0,0-.16-.84h-.27l-.1.85-1,10.45L132,342Zm-34.11-5.32a1.44,1.44,0,0,0-1-.36,1.51,1.51,0,0,0-1.44,1.21,3.54,3.54,0,0,0-.18,1.21l0,19.41a2.88,2.88,0,0,0,.66,2.06,1.32,1.32,0,0,0,1,.36,1.41,1.41,0,0,0,1.43-1.21,3.16,3.16,0,0,0,.19-1.21l.05-19.4A3,3,0,0,0,96.14,326.38Zm0,0a1.44,1.44,0,0,0-1-.36,1.51,1.51,0,0,0-1.44,1.21,3.54,3.54,0,0,0-.18,1.21l0,19.41a2.88,2.88,0,0,0,.66,2.06,1.32,1.32,0,0,0,1,.36,1.41,1.41,0,0,0,1.43-1.21,3.16,3.16,0,0,0,.19-1.21l.05-19.4A3,3,0,0,0,96.14,326.38Zm34.11,5.32-.16-.84h-.27l-.1.85-1,10.45L132,342ZM204.78,325c-.22-2.28-.95-3.29-1.8-3.75a3.78,3.78,0,0,0-2.19-.29l.83,8.75a3.77,3.77,0,0,0,2.1-.7C204.47,328.39,205,327.26,204.78,325Zm1.31,13.83c-.25-2.68-1-3.92-1.86-4.42a3.48,3.48,0,0,0-2.19-.29l1,10.09a3.41,3.41,0,0,0,2.1-.7C205.84,342.84,206.35,341.49,206.09,338.82Zm0,0c-.25-2.68-1-3.92-1.86-4.42a3.48,3.48,0,0,0-2.19-.29l1,10.09a3.41,3.41,0,0,0,2.1-.7C205.84,342.84,206.35,341.49,206.09,338.82ZM204.78,325c-.22-2.28-.95-3.29-1.8-3.75a3.78,3.78,0,0,0-2.19-.29l.83,8.75a3.77,3.77,0,0,0,2.1-.7C204.47,328.39,205,327.26,204.78,325Zm-74.53,6.71-.16-.84h-.27l-.1.85-1,10.45L132,342Zm-34.11-5.32a1.44,1.44,0,0,0-1-.36,1.51,1.51,0,0,0-1.44,1.21,3.54,3.54,0,0,0-.18,1.21l0,19.41a2.88,2.88,0,0,0,.66,2.06,1.32,1.32,0,0,0,1,.36,1.41,1.41,0,0,0,1.43-1.21,3.16,3.16,0,0,0,.19-1.21l.05-19.4A3,3,0,0,0,96.14,326.38Zm0,0a1.44,1.44,0,0,0-1-.36,1.51,1.51,0,0,0-1.44,1.21,3.54,3.54,0,0,0-.18,1.21l0,19.41a2.88,2.88,0,0,0,.66,2.06,1.32,1.32,0,0,0,1,.36,1.41,1.41,0,0,0,1.43-1.21,3.16,3.16,0,0,0,.19-1.21l.05-19.4A3,3,0,0,0,96.14,326.38Zm34.11,5.32-.16-.84h-.27l-.1.85-1,10.45L132,342ZM204.78,325c-.22-2.28-.95-3.29-1.8-3.75a3.78,3.78,0,0,0-2.19-.29l.83,8.75a3.77,3.77,0,0,0,2.1-.7C204.47,328.39,205,327.26,204.78,325Zm1.31,13.83c-.25-2.68-1-3.92-1.86-4.42a3.48,3.48,0,0,0-2.19-.29l1,10.09a3.41,3.41,0,0,0,2.1-.7C205.84,342.84,206.35,341.49,206.09,338.82Zm16.49-15.16c-.25-2.31-1-3.5-1.74-4.05a3.32,3.32,0,0,0-2.35-.43l1,9.72a3.41,3.41,0,0,0,2.2-.95C222.37,327.25,222.82,326,222.58,323.66Zm0,0c-.25-2.31-1-3.5-1.74-4.05a3.32,3.32,0,0,0-2.35-.43l1,9.72a3.41,3.41,0,0,0,2.2-.95C222.37,327.25,222.82,326,222.58,323.66Zm-16.49,15.16c-.25-2.68-1-3.92-1.86-4.42a3.48,3.48,0,0,0-2.19-.29l1,10.09a3.41,3.41,0,0,0,2.1-.7C205.84,342.84,206.35,341.49,206.09,338.82ZM204.78,325c-.22-2.28-.95-3.29-1.8-3.75a3.78,3.78,0,0,0-2.19-.29l.83,8.75a3.77,3.77,0,0,0,2.1-.7C204.47,328.39,205,327.26,204.78,325Zm-74.53,6.71-.16-.84h-.27l-.1.85-1,10.45L132,342Zm-34.11-5.32a1.44,1.44,0,0,0-1-.36,1.51,1.51,0,0,0-1.44,1.21,3.54,3.54,0,0,0-.18,1.21l0,19.41a2.88,2.88,0,0,0,.66,2.06,1.32,1.32,0,0,0,1,.36,1.41,1.41,0,0,0,1.43-1.21,3.16,3.16,0,0,0,.19-1.21l.05-19.4A3,3,0,0,0,96.14,326.38Zm0,0a1.44,1.44,0,0,0-1-.36,1.51,1.51,0,0,0-1.44,1.21,3.54,3.54,0,0,0-.18,1.21l0,19.41a2.88,2.88,0,0,0,.66,2.06,1.32,1.32,0,0,0,1,.36,1.41,1.41,0,0,0,1.43-1.21,3.16,3.16,0,0,0,.19-1.21l.05-19.4A3,3,0,0,0,96.14,326.38Zm34.11,5.32-.16-.84h-.27l-.1.85-1,10.45L132,342ZM204.78,325c-.22-2.28-.95-3.29-1.8-3.75a3.78,3.78,0,0,0-2.19-.29l.83,8.75a3.77,3.77,0,0,0,2.1-.7C204.47,328.39,205,327.26,204.78,325Zm1.31,13.83c-.25-2.68-1-3.92-1.86-4.42a3.48,3.48,0,0,0-2.19-.29l1,10.09a3.41,3.41,0,0,0,2.1-.7C205.84,342.84,206.35,341.49,206.09,338.82Zm16.49-15.16c-.25-2.31-1-3.5-1.74-4.05a3.32,3.32,0,0,0-2.35-.43l1,9.72a3.41,3.41,0,0,0,2.2-.95C222.37,327.25,222.82,326,222.58,323.66Zm0,0c-.25-2.31-1-3.5-1.74-4.05a3.32,3.32,0,0,0-2.35-.43l1,9.72a3.41,3.41,0,0,0,2.2-.95C222.37,327.25,222.82,326,222.58,323.66Zm-16.49,15.16c-.25-2.68-1-3.92-1.86-4.42a3.48,3.48,0,0,0-2.19-.29l1,10.09a3.41,3.41,0,0,0,2.1-.7C205.84,342.84,206.35,341.49,206.09,338.82ZM204.78,325c-.22-2.28-.95-3.29-1.8-3.75a3.78,3.78,0,0,0-2.19-.29l.83,8.75a3.77,3.77,0,0,0,2.1-.7C204.47,328.39,205,327.26,204.78,325Zm-74.53,6.71-.16-.84h-.27l-.1.85-1,10.45L132,342Zm-34.11-5.32a1.44,1.44,0,0,0-1-.36,1.51,1.51,0,0,0-1.44,1.21,3.54,3.54,0,0,0-.18,1.21l0,19.41a2.88,2.88,0,0,0,.66,2.06,1.32,1.32,0,0,0,1,.36,1.41,1.41,0,0,0,1.43-1.21,3.16,3.16,0,0,0,.19-1.21l.05-19.4A3,3,0,0,0,96.14,326.38Zm0,0a1.44,1.44,0,0,0-1-.36,1.51,1.51,0,0,0-1.44,1.21,3.54,3.54,0,0,0-.18,1.21l0,19.41a2.88,2.88,0,0,0,.66,2.06,1.32,1.32,0,0,0,1,.36,1.41,1.41,0,0,0,1.43-1.21,3.16,3.16,0,0,0,.19-1.21l.05-19.4A3,3,0,0,0,96.14,326.38Zm34.11,5.32-.16-.84h-.27l-.1.85-1,10.45L132,342ZM204.78,325c-.22-2.28-.95-3.29-1.8-3.75a3.78,3.78,0,0,0-2.19-.29l.83,8.75a3.77,3.77,0,0,0,2.1-.7C204.47,328.39,205,327.26,204.78,325Zm1.31,13.83c-.25-2.68-1-3.92-1.86-4.42a3.48,3.48,0,0,0-2.19-.29l1,10.09a3.41,3.41,0,0,0,2.1-.7C205.84,342.84,206.35,341.49,206.09,338.82Zm16.49-15.16c-.25-2.31-1-3.5-1.74-4.05a3.32,3.32,0,0,0-2.35-.43l1,9.72a3.41,3.41,0,0,0,2.2-.95C222.37,327.25,222.82,326,222.58,323.66Zm76.13,6.27c-.06-1.57-.19-3.67-.36-6.35s-.31-4.79-.45-6.35a15.26,15.26,0,0,0-.67-3.46c-.59-1.54-1.54-1.66-3.2-1.55l1.48,23.21c1.66-.1,2.58-.34,3-2A14.42,14.42,0,0,0,298.71,329.93Zm26.11-13.4-.16-.85h-.27l-.11.86-1,10.44,3.32-.12Zm0,0-.16-.85h-.27l-.11.86-1,10.44,3.32-.12Zm-26.11,13.4c-.06-1.57-.19-3.67-.36-6.35s-.31-4.79-.45-6.35a15.26,15.26,0,0,0-.67-3.46c-.59-1.54-1.54-1.66-3.2-1.55l1.48,23.21c1.66-.1,2.58-.34,3-2A14.42,14.42,0,0,0,298.71,329.93Zm-76.13-6.27c-.25-2.31-1-3.5-1.74-4.05a3.32,3.32,0,0,0-2.35-.43l1,9.72a3.41,3.41,0,0,0,2.2-.95C222.37,327.25,222.82,326,222.58,323.66Zm-16.49,15.16c-.25-2.68-1-3.92-1.86-4.42a3.48,3.48,0,0,0-2.19-.29l1,10.09a3.41,3.41,0,0,0,2.1-.7C205.84,342.84,206.35,341.49,206.09,338.82ZM204.78,325c-.22-2.28-.95-3.29-1.8-3.75a3.78,3.78,0,0,0-2.19-.29l.83,8.75a3.77,3.77,0,0,0,2.1-.7C204.47,328.39,205,327.26,204.78,325Zm-74.53,6.71-.16-.84h-.27l-.1.85-1,10.45L132,342Zm-34.11-5.32a1.44,1.44,0,0,0-1-.36,1.51,1.51,0,0,0-1.44,1.21,3.54,3.54,0,0,0-.18,1.21l0,19.41a2.88,2.88,0,0,0,.66,2.06,1.32,1.32,0,0,0,1,.36,1.41,1.41,0,0,0,1.43-1.21,3.16,3.16,0,0,0,.19-1.21l.05-19.4A3,3,0,0,0,96.14,326.38Zm0,0a1.44,1.44,0,0,0-1-.36,1.51,1.51,0,0,0-1.44,1.21,3.54,3.54,0,0,0-.18,1.21l0,19.41a2.88,2.88,0,0,0,.66,2.06,1.32,1.32,0,0,0,1,.36,1.41,1.41,0,0,0,1.43-1.21,3.16,3.16,0,0,0,.19-1.21l.05-19.4A3,3,0,0,0,96.14,326.38Zm34.11,5.32-.16-.84h-.27l-.1.85-1,10.45L132,342ZM204.78,325c-.22-2.28-.95-3.29-1.8-3.75a3.78,3.78,0,0,0-2.19-.29l.83,8.75a3.77,3.77,0,0,0,2.1-.7C204.47,328.39,205,327.26,204.78,325Zm1.31,13.83c-.25-2.68-1-3.92-1.86-4.42a3.48,3.48,0,0,0-2.19-.29l1,10.09a3.41,3.41,0,0,0,2.1-.7C205.84,342.84,206.35,341.49,206.09,338.82Zm16.49-15.16c-.25-2.31-1-3.5-1.74-4.05a3.32,3.32,0,0,0-2.35-.43l1,9.72a3.41,3.41,0,0,0,2.2-.95C222.37,327.25,222.82,326,222.58,323.66Zm76.13,6.27c-.06-1.57-.19-3.67-.36-6.35s-.31-4.79-.45-6.35a15.26,15.26,0,0,0-.67-3.46c-.59-1.54-1.54-1.66-3.2-1.55l1.48,23.21c1.66-.1,2.58-.34,3-2A14.42,14.42,0,0,0,298.71,329.93Zm26.11-13.4-.16-.85h-.27l-.11.86-1,10.44,3.32-.12Zm0,0-.16-.85h-.27l-.11.86-1,10.44,3.32-.12Zm-26.11,13.4c-.06-1.57-.19-3.67-.36-6.35s-.31-4.79-.45-6.35a15.26,15.26,0,0,0-.67-3.46c-.59-1.54-1.54-1.66-3.2-1.55l1.48,23.21c1.66-.1,2.58-.34,3-2A14.42,14.42,0,0,0,298.71,329.93Zm-76.13-6.27c-.25-2.31-1-3.5-1.74-4.05a3.32,3.32,0,0,0-2.35-.43l1,9.72a3.41,3.41,0,0,0,2.2-.95C222.37,327.25,222.82,326,222.58,323.66Zm-16.49,15.16c-.25-2.68-1-3.92-1.86-4.42a3.48,3.48,0,0,0-2.19-.29l1,10.09a3.41,3.41,0,0,0,2.1-.7C205.84,342.84,206.35,341.49,206.09,338.82ZM204.78,325c-.22-2.28-.95-3.29-1.8-3.75a3.78,3.78,0,0,0-2.19-.29l.83,8.75a3.77,3.77,0,0,0,2.1-.7C204.47,328.39,205,327.26,204.78,325Zm-74.53,6.71-.16-.84h-.27l-.1.85-1,10.45L132,342Zm-34.11-5.32a1.44,1.44,0,0,0-1-.36,1.51,1.51,0,0,0-1.44,1.21,3.54,3.54,0,0,0-.18,1.21l0,19.41a2.88,2.88,0,0,0,.66,2.06,1.32,1.32,0,0,0,1,.36,1.41,1.41,0,0,0,1.43-1.21,3.16,3.16,0,0,0,.19-1.21l.05-19.4A3,3,0,0,0,96.14,326.38Zm359.3,37a19.52,19.52,0,0,0-2.14-1.89,32.07,32.07,0,0,0-5-3.15A61.38,61.38,0,0,0,436.86,354a107.63,107.63,0,0,0-12.13-2.6c-4.11-.65-8.25-1.11-12.41-1.44a.27.27,0,0,1,0-.54c4.19,0,8.37.16,12.56.5a109.12,109.12,0,0,1,12.54,1.7,64.37,64.37,0,0,1,12.27,3.65,37.18,37.18,0,0,1,5.42,2.81,44.17,44.17,0,0,1-1.38-6.6l-.45-.36a32.07,32.07,0,0,0-5-3.15,61.38,61.38,0,0,0-11.41-4.35,107.63,107.63,0,0,0-12.13-2.6c-4.11-.65-8.25-1.12-12.41-1.44a.29.29,0,0,1-.25-.3.27.27,0,0,1,.27-.25c4.19,0,8.37.16,12.56.51a109.12,109.12,0,0,1,12.54,1.7,63.65,63.65,0,0,1,12.27,3.65,36.3,36.3,0,0,1,3.5,1.69c-.16-2-.25-4.08-.28-6.12a32.74,32.74,0,0,0-4.66-2.88,61.38,61.38,0,0,0-11.41-4.35,107.63,107.63,0,0,0-12.13-2.6c-4.11-.65-8.25-1.11-12.41-1.44a.27.27,0,0,1,0-.54c4.19,0,8.37.16,12.56.5a109.12,109.12,0,0,1,12.54,1.7,64.37,64.37,0,0,1,12.27,3.65c1.11.47,2.19,1,3.26,1.56.07-2,.21-3.89.42-5.64l-.09-.08a32.78,32.78,0,0,0-5-3.14,61.38,61.38,0,0,0-11.41-4.35,105.47,105.47,0,0,0-12.13-2.6c-4.11-.65-8.25-1.12-12.41-1.44a.28.28,0,0,1-.25-.29.26.26,0,0,1,.27-.25c4.19,0,8.37.15,12.56.49a111.4,111.4,0,0,1,12.54,1.71,63.65,63.65,0,0,1,12.27,3.65,38.86,38.86,0,0,1,4.39,2.17c.08-.33.16-.65.25-.95.34-1.2.65-2.42.91-3.65a19.22,19.22,0,0,0-2-1.73,32.83,32.83,0,0,0-5-3.15,61.38,61.38,0,0,0-11.41-4.35,109.88,109.88,0,0,0-12.13-2.6c-4.11-.65-8.25-1.11-12.41-1.44a.27.27,0,0,1,0-.54c4.19,0,8.37.16,12.56.5a109.12,109.12,0,0,1,12.54,1.7,64.37,64.37,0,0,1,12.27,3.65,37.07,37.07,0,0,1,5.84,3.07c.13.08.26.18.38.27a20,20,0,0,0-.32-5.42l-.17-.19a21.86,21.86,0,0,0-2.14-1.89,32.78,32.78,0,0,0-5-3.14,61.38,61.38,0,0,0-11.41-4.35,105.47,105.47,0,0,0-12.13-2.6c-4.11-.65-8.25-1.11-12.41-1.44a.29.29,0,0,1-.25-.3.26.26,0,0,1,.27-.24c4.19,0,8.37.15,12.56.5a107,107,0,0,1,12.54,1.7,63.65,63.65,0,0,1,12.27,3.65c.72.3,1.43.63,2.14,1a19.67,19.67,0,0,0-3.66-3.09c-5.35-3.57-18.87-7.3-42.1-9.38l-2.95-.25-3.79-.28q-2.88-.21-5.92-.37c-8.58-.47-18.21-.74-28.93-.74-37.92,0-83,3.27-133.89,9.74h-.09c-.93.08-93.9,8.08-142.85,8.08H85.08c-14.82-.09-27.15-.7-37.39-1.67a2.31,2.31,0,0,1-.46.05h-.08a2.17,2.17,0,0,1-.76-.18C16.67,303.29,5,297.19.68,291.84A23,23,0,0,0,0,295.28l0,0,.15.24c.11.16.23.33.36.5a12,12,0,0,0,.89,1A20.37,20.37,0,0,0,3.55,299a33.83,33.83,0,0,0,5,3.15A60.92,60.92,0,0,0,20,306.45a107.83,107.83,0,0,0,12.14,2.61c4.11.65,8.25,1.11,12.41,1.44a.27.27,0,0,1,.25.29.29.29,0,0,1-.27.25c-4.19,0-8.38-.16-12.57-.5a106.66,106.66,0,0,1-12.52-1.71,64.52,64.52,0,0,1-12.29-3.64,37.42,37.42,0,0,1-5.83-3.07l-.62-.43a39.63,39.63,0,0,1,1.5,6.49c.43.4.88.79,1.36,1.16a33,33,0,0,0,5,3.15A61.65,61.65,0,0,0,20,316.84a107.8,107.8,0,0,0,12.14,2.6c4.11.65,8.25,1.11,12.41,1.44a.27.27,0,0,1,.25.29.28.28,0,0,1-.27.25q-6.29,0-12.57-.5a108.78,108.78,0,0,1-12.52-1.7,63.84,63.84,0,0,1-12.29-3.65,39.53,39.53,0,0,1-4.33-2.14c.17,1.94.27,3.95.31,5.94l.43.36a33.78,33.78,0,0,0,5,3.14A60.1,60.1,0,0,0,20,327.22a107.19,107.19,0,0,0,12.13,2.61c4.11.65,8.25,1.11,12.41,1.44a.27.27,0,0,1,.25.29.28.28,0,0,1-.27.25q-6.29,0-12.57-.5a106.66,106.66,0,0,1-12.52-1.71A64.52,64.52,0,0,1,7.14,326a41.75,41.75,0,0,1-4-2c-.06,1.91-.18,3.75-.37,5.47l.81.66a33,33,0,0,0,5,3.15A61.48,61.48,0,0,0,20,337.61a107.16,107.16,0,0,0,12.13,2.6c4.11.65,8.25,1.11,12.41,1.44a.27.27,0,0,1,.25.29.28.28,0,0,1-.27.25c-4.19,0-8.38-.16-12.57-.5A108.78,108.78,0,0,1,19.43,340a63.84,63.84,0,0,1-12.29-3.65,38.52,38.52,0,0,1-5.07-2.6c-.11.5-.23,1-.35,1.42-.28,1-.54,1.95-.77,2.94l.47.51a21.58,21.58,0,0,0,2.13,1.89,33.83,33.83,0,0,0,5,3.15A60.92,60.92,0,0,0,20,348a105.64,105.64,0,0,0,12.14,2.6c4.11.65,8.25,1.12,12.41,1.45a.27.27,0,0,1,.25.29.28.28,0,0,1-.27.25q-6.29,0-12.57-.5a106.66,106.66,0,0,1-12.52-1.71,64.52,64.52,0,0,1-12.29-3.64,37.42,37.42,0,0,1-5.83-3.07c-.39-.25-.76-.52-1.14-.8a22.35,22.35,0,0,0,.06,4.7l.3.42c.27.34.57.68.89,1a21.5,21.5,0,0,0,2.13,1.88,33,33,0,0,0,5,3.15A61.65,61.65,0,0,0,20,358.38,107.8,107.8,0,0,0,32.13,361c4.11.65,8.25,1.11,12.41,1.44a.27.27,0,0,1,0,.54c-4.19,0-8.38-.16-12.57-.49a111.06,111.06,0,0,1-12.52-1.71,64.56,64.56,0,0,1-12.29-3.65,38.11,38.11,0,0,1-3.64-1.77,18.76,18.76,0,0,0,4.37,3.93c6,4,20.93,6.89,42.18,8.42l3,.2,3.78.23c1.39.08,2.8.15,4.24.21,8.28.38,17.3.58,26.93.58,37.85,0,84.12-2.81,137.54-8.37,1-.08,93.94-8.08,142.89-8.08H371c14.83.09,27.16.7,37.41,1.67a2.11,2.11,0,0,1,.51,0,2.17,2.17,0,0,1,.77.17c29.72,3,41.43,9.07,45.71,14.42a20.53,20.53,0,0,0,.76-4.48C455.92,363.93,455.69,363.67,455.44,363.41ZM83.92,354.54l-11.24-.38,1.1-32.92,4.84.16-1,28.44,6.4.22Zm17.63-6.67a8.93,8.93,0,0,1-.82,3.58,6.25,6.25,0,0,1-1.93,2.42A5.82,5.82,0,0,1,95.07,355a6,6,0,0,1-3.76-1.13,6.09,6.09,0,0,1-1.87-2.43,8.78,8.78,0,0,1-.8-3.59l0-19.4a8.9,8.9,0,0,1,.82-3.54,5.66,5.66,0,0,1,5.65-3.57,6,6,0,0,1,3.72,1.13,6.27,6.27,0,0,1,1.92,2.47,8.89,8.89,0,0,1,.8,3.54Zm17,3.29a6.27,6.27,0,0,1-1.88,2.46,5.76,5.76,0,0,1-3.7,1.19,5.88,5.88,0,0,1-3.78-1.05,6,6,0,0,1-1.93-2.38,9,9,0,0,1-.88-3.57l-.38-19.4a8.79,8.79,0,0,1,.73-3.55,5.69,5.69,0,0,1,5.57-3.7,6,6,0,0,1,3.75,1,6.27,6.27,0,0,1,2,2.42,9,9,0,0,1,.88,3.53l.09,4.52-4.53.09-.09-4.52a2.85,2.85,0,0,0-.75-2.05,1.63,1.63,0,0,0-2.59.9,5.45,5.45,0,0,0-.2,1.22l.39,19.4a3,3,0,0,0,.8,2,1.29,1.29,0,0,0,1,.34,1.55,1.55,0,0,0,1.63-1.24,3.09,3.09,0,0,0,.16-1.21l-.09-4.53,4.52-.09.1,4.53A9.06,9.06,0,0,1,118.52,351.16Zm15.54,2.64-1.15-6.68-4.66.18-.63,6.75-4.7.18,3.7-33.1,5.91-.23,6.24,32.72Zm9-.41-1.77-32.89,4.84-.26,1.53,28.41,6.39-.34.24,4.47Zm15.43-.87-2.17-32.87,4.83-.31,1.88,28.39,6.39-.42.3,4.47Zm21.9-1.56-4.83.38-1.08-14-6.37-18.48,4.74-.36,3.22,10.31.16.3h.09l.11-.33,1.6-10.68,4.74-.37L179.34,337Zm29.76-5.6a7,7,0,0,1-5.61,3.5l-5.93.57-3.12-32.79,4.24-.41c2.85-.27,5.14.06,6.74,1.3s2.56,3.31,2.87,6.57a8.79,8.79,0,0,1-.26,3.85,9.37,9.37,0,0,1-2.08,3.21c1.27.56,2.28,1.72,3.19,3.75a12.49,12.49,0,0,1,.92,4A11.54,11.54,0,0,1,210.18,345.36Zm15.07,1.41-4-13.55-1.29.14,1.46,13.81-4.81.51-3.47-32.75,4.81-.52c5.75-.61,8.54,2.39,9.2,8.58.35,3.26-.19,6.29-1.88,7.73l4.75,15.54Zm9.37-1L231.1,313l11-1.18.53,4.94-6.19.67.93,8.6,4.45-.48.57,5.25-4.46.48,1,9,6.2-.66.53,4.94Zm32-3.22-3.75.35-3.68-15.32-.45-1.89h-.18l-.09,1.95-.78,15.74-3.74.35-7.49-32.39,4.46-.42,3.51,16.87.19,1.06.36,0,0-1.09.46-17.23,3.48-.33L262.63,327l.23,1.06.36,0v-1.08l.32-17.23,4.47-.41Zm8.79-.75-2.57-32.84,11-.86.39,5-6.21.48.67,8.63,4.47-.35.41,5.27-4.47.35.71,9,6.21-.49.39,5Zm27.32-5.35c-1.14,2.59-3.49,3.64-8,3.92l-3.8.24-2.1-32.87,3.8-.24c4.48-.29,6.95.45,8.41,2.87s1.85,6.53,2.26,13S303.85,333.82,302.76,336.41Zm25.82,2.23L327.44,332l-4.66.17-.65,6.75-4.7.17,3.78-33.1,5.91-.21,6.16,32.74Zm9-.25-.52-32.93,4.84-.08.44,28.45,6.41-.1.07,4.48Zm26.64-28.07-6.23-.05-.07,8.65,4.48,0,0,5.28-4.48,0-.07,9.06,6.23,0,0,5-11.07-.08.24-32.95,11.07.08Zm18.31,4-4.76.26a11.15,11.15,0,0,0-.23-3.24c-.28-.9-.75-1.55-1.51-1.58-1.25,0-1.71,1.28-1.78,3.2a7.43,7.43,0,0,0,1.06,3.59c.67,1.28,1.56,2.62,2.45,4a52.3,52.3,0,0,1,2.89,5.14,11.35,11.35,0,0,1,1.23,5.2,10.42,10.42,0,0,1-1.62,5.73,5.92,5.92,0,0,1-5.43,2.29c-3.09-.12-4.79-1.35-5.7-3.18a14.21,14.21,0,0,1-.95-6.68l4.77-.26a12.18,12.18,0,0,0,.25,3.82c.27,1.09.78,1.83,1.81,1.87,1.43.06,2-1.45,2.11-3.55a8.2,8.2,0,0,0-1.11-3.68c-.38-.64-.75-1.33-1.17-2-.89-1.39-1.86-2.95-2.87-4.65a18.62,18.62,0,0,1-2.17-5.2,8.47,8.47,0,0,1-.3-2.65,9.2,9.2,0,0,1,1.64-5.14,5.88,5.88,0,0,1,5-2.32c2.91.08,4.56,1.35,5.43,3.13A12.9,12.9,0,0,1,382.53,314.35Zm-57.87,1.33h-.27l-.11.86-1,10.44,3.32-.12-1.77-10.34Zm-26.31,7.9c-.17-2.69-.31-4.79-.45-6.35a15.26,15.26,0,0,0-.67-3.46c-.59-1.54-1.54-1.66-3.2-1.55l1.48,23.21c1.66-.1,2.58-.34,3-2a14.42,14.42,0,0,0,.23-3.52C298.65,328.36,298.52,326.26,298.35,323.58Zm-77.51-4a3.32,3.32,0,0,0-2.35-.43l1,9.72a3.41,3.41,0,0,0,2.2-.95c.65-.7,1.1-2,.86-4.29S221.62,320.16,220.84,319.61ZM204.23,334.4a3.48,3.48,0,0,0-2.19-.29l1,10.09a3.41,3.41,0,0,0,2.1-.7c.74-.66,1.25-2,1-4.68S205.09,334.9,204.23,334.4Zm.55-9.41c-.22-2.28-.95-3.29-1.8-3.75a3.78,3.78,0,0,0-2.19-.29l.83,8.75a3.77,3.77,0,0,0,2.1-.7C204.47,328.39,205,327.26,204.78,325Zm-74.69,5.87h-.27l-.1.85-1,10.45L132,342l-1.79-10.34ZM95.15,326a1.51,1.51,0,0,0-1.44,1.21,3.54,3.54,0,0,0-.18,1.21l0,19.41a2.88,2.88,0,0,0,.66,2.06,1.32,1.32,0,0,0,1,.36,1.41,1.41,0,0,0,1.43-1.21,3.16,3.16,0,0,0,.19-1.21l.05-19.4a3,3,0,0,0-.62-2.07A1.44,1.44,0,0,0,95.15,326Zm1,.36a1.44,1.44,0,0,0-1-.36,1.51,1.51,0,0,0-1.44,1.21,3.54,3.54,0,0,0-.18,1.21l0,19.41a2.88,2.88,0,0,0,.66,2.06,1.32,1.32,0,0,0,1,.36,1.41,1.41,0,0,0,1.43-1.21,3.16,3.16,0,0,0,.19-1.21l.05-19.4A3,3,0,0,0,96.14,326.38Zm34.11,5.32-.16-.84h-.27l-.1.85-1,10.45L132,342ZM204.78,325c-.22-2.28-.95-3.29-1.8-3.75a3.78,3.78,0,0,0-2.19-.29l.83,8.75a3.77,3.77,0,0,0,2.1-.7C204.47,328.39,205,327.26,204.78,325Zm1.31,13.83c-.25-2.68-1-3.92-1.86-4.42a3.48,3.48,0,0,0-2.19-.29l1,10.09a3.41,3.41,0,0,0,2.1-.7C205.84,342.84,206.35,341.49,206.09,338.82Zm16.49-15.16c-.25-2.31-1-3.5-1.74-4.05a3.32,3.32,0,0,0-2.35-.43l1,9.72a3.41,3.41,0,0,0,2.2-.95C222.37,327.25,222.82,326,222.58,323.66Zm76.13,6.27c-.06-1.57-.19-3.67-.36-6.35s-.31-4.79-.45-6.35a15.26,15.26,0,0,0-.67-3.46c-.59-1.54-1.54-1.66-3.2-1.55l1.48,23.21c1.66-.1,2.58-.34,3-2A14.42,14.42,0,0,0,298.71,329.93Zm26.11-13.4-.16-.85h-.27l-.11.86-1,10.44,3.32-.12Zm0,0-.16-.85h-.27l-.11.86-1,10.44,3.32-.12Zm-26.11,13.4c-.06-1.57-.19-3.67-.36-6.35s-.31-4.79-.45-6.35a15.26,15.26,0,0,0-.67-3.46c-.59-1.54-1.54-1.66-3.2-1.55l1.48,23.21c1.66-.1,2.58-.34,3-2A14.42,14.42,0,0,0,298.71,329.93Zm-76.13-6.27c-.25-2.31-1-3.5-1.74-4.05a3.32,3.32,0,0,0-2.35-.43l1,9.72a3.41,3.41,0,0,0,2.2-.95C222.37,327.25,222.82,326,222.58,323.66Zm-16.49,15.16c-.25-2.68-1-3.92-1.86-4.42a3.48,3.48,0,0,0-2.19-.29l1,10.09a3.41,3.41,0,0,0,2.1-.7C205.84,342.84,206.35,341.49,206.09,338.82ZM204.78,325c-.22-2.28-.95-3.29-1.8-3.75a3.78,3.78,0,0,0-2.19-.29l.83,8.75a3.77,3.77,0,0,0,2.1-.7C204.47,328.39,205,327.26,204.78,325Zm-74.53,6.71-.16-.84h-.27l-.1.85-1,10.45L132,342Zm-34.11-5.32a1.44,1.44,0,0,0-1-.36,1.51,1.51,0,0,0-1.44,1.21,3.54,3.54,0,0,0-.18,1.21l0,19.41a2.88,2.88,0,0,0,.66,2.06,1.32,1.32,0,0,0,1,.36,1.41,1.41,0,0,0,1.43-1.21,3.16,3.16,0,0,0,.19-1.21l.05-19.4A3,3,0,0,0,96.14,326.38Zm0,0a1.44,1.44,0,0,0-1-.36,1.51,1.51,0,0,0-1.44,1.21,3.54,3.54,0,0,0-.18,1.21l0,19.41a2.88,2.88,0,0,0,.66,2.06,1.32,1.32,0,0,0,1,.36,1.41,1.41,0,0,0,1.43-1.21,3.16,3.16,0,0,0,.19-1.21l.05-19.4A3,3,0,0,0,96.14,326.38Zm34.11,5.32-.16-.84h-.27l-.1.85-1,10.45L132,342ZM204.78,325c-.22-2.28-.95-3.29-1.8-3.75a3.78,3.78,0,0,0-2.19-.29l.83,8.75a3.77,3.77,0,0,0,2.1-.7C204.47,328.39,205,327.26,204.78,325Zm1.31,13.83c-.25-2.68-1-3.92-1.86-4.42a3.48,3.48,0,0,0-2.19-.29l1,10.09a3.41,3.41,0,0,0,2.1-.7C205.84,342.84,206.35,341.49,206.09,338.82Zm16.49-15.16c-.25-2.31-1-3.5-1.74-4.05a3.32,3.32,0,0,0-2.35-.43l1,9.72a3.41,3.41,0,0,0,2.2-.95C222.37,327.25,222.82,326,222.58,323.66Zm76.13,6.27c-.06-1.57-.19-3.67-.36-6.35s-.31-4.79-.45-6.35a15.26,15.26,0,0,0-.67-3.46c-.59-1.54-1.54-1.66-3.2-1.55l1.48,23.21c1.66-.1,2.58-.34,3-2A14.42,14.42,0,0,0,298.71,329.93Zm0,0c-.06-1.57-.19-3.67-.36-6.35s-.31-4.79-.45-6.35a15.26,15.26,0,0,0-.67-3.46c-.59-1.54-1.54-1.66-3.2-1.55l1.48,23.21c1.66-.1,2.58-.34,3-2A14.42,14.42,0,0,0,298.71,329.93Zm-76.13-6.27c-.25-2.31-1-3.5-1.74-4.05a3.32,3.32,0,0,0-2.35-.43l1,9.72a3.41,3.41,0,0,0,2.2-.95C222.37,327.25,222.82,326,222.58,323.66Zm-16.49,15.16c-.25-2.68-1-3.92-1.86-4.42a3.48,3.48,0,0,0-2.19-.29l1,10.09a3.41,3.41,0,0,0,2.1-.7C205.84,342.84,206.35,341.49,206.09,338.82ZM204.78,325c-.22-2.28-.95-3.29-1.8-3.75a3.78,3.78,0,0,0-2.19-.29l.83,8.75a3.77,3.77,0,0,0,2.1-.7C204.47,328.39,205,327.26,204.78,325Zm-74.53,6.71-.16-.84h-.27l-.1.85-1,10.45L132,342Zm-34.11-5.32a1.44,1.44,0,0,0-1-.36,1.51,1.51,0,0,0-1.44,1.21,3.54,3.54,0,0,0-.18,1.21l0,19.41a2.88,2.88,0,0,0,.66,2.06,1.32,1.32,0,0,0,1,.36,1.41,1.41,0,0,0,1.43-1.21,3.16,3.16,0,0,0,.19-1.21l.05-19.4A3,3,0,0,0,96.14,326.38Zm0,0a1.44,1.44,0,0,0-1-.36,1.51,1.51,0,0,0-1.44,1.21,3.54,3.54,0,0,0-.18,1.21l0,19.41a2.88,2.88,0,0,0,.66,2.06,1.32,1.32,0,0,0,1,.36,1.41,1.41,0,0,0,1.43-1.21,3.16,3.16,0,0,0,.19-1.21l.05-19.4A3,3,0,0,0,96.14,326.38Zm34.11,5.32-.16-.84h-.27l-.1.85-1,10.45L132,342ZM204.78,325c-.22-2.28-.95-3.29-1.8-3.75a3.78,3.78,0,0,0-2.19-.29l.83,8.75a3.77,3.77,0,0,0,2.1-.7C204.47,328.39,205,327.26,204.78,325Zm1.31,13.83c-.25-2.68-1-3.92-1.86-4.42a3.48,3.48,0,0,0-2.19-.29l1,10.09a3.41,3.41,0,0,0,2.1-.7C205.84,342.84,206.35,341.49,206.09,338.82Zm16.49-15.16c-.25-2.31-1-3.5-1.74-4.05a3.32,3.32,0,0,0-2.35-.43l1,9.72a3.41,3.41,0,0,0,2.2-.95C222.37,327.25,222.82,326,222.58,323.66Zm0,0c-.25-2.31-1-3.5-1.74-4.05a3.32,3.32,0,0,0-2.35-.43l1,9.72a3.41,3.41,0,0,0,2.2-.95C222.37,327.25,222.82,326,222.58,323.66Zm-16.49,15.16c-.25-2.68-1-3.92-1.86-4.42a3.48,3.48,0,0,0-2.19-.29l1,10.09a3.41,3.41,0,0,0,2.1-.7C205.84,342.84,206.35,341.49,206.09,338.82ZM204.78,325c-.22-2.28-.95-3.29-1.8-3.75a3.78,3.78,0,0,0-2.19-.29l.83,8.75a3.77,3.77,0,0,0,2.1-.7C204.47,328.39,205,327.26,204.78,325Zm-74.53,6.71-.16-.84h-.27l-.1.85-1,10.45L132,342Zm-34.11-5.32a1.44,1.44,0,0,0-1-.36,1.51,1.51,0,0,0-1.44,1.21,3.54,3.54,0,0,0-.18,1.21l0,19.41a2.88,2.88,0,0,0,.66,2.06,1.32,1.32,0,0,0,1,.36,1.41,1.41,0,0,0,1.43-1.21,3.16,3.16,0,0,0,.19-1.21l.05-19.4A3,3,0,0,0,96.14,326.38Zm0,0a1.44,1.44,0,0,0-1-.36,1.51,1.51,0,0,0-1.44,1.21,3.54,3.54,0,0,0-.18,1.21l0,19.41a2.88,2.88,0,0,0,.66,2.06,1.32,1.32,0,0,0,1,.36,1.41,1.41,0,0,0,1.43-1.21,3.16,3.16,0,0,0,.19-1.21l.05-19.4A3,3,0,0,0,96.14,326.38Zm34.11,5.32-.16-.84h-.27l-.1.85-1,10.45L132,342ZM204.78,325c-.22-2.28-.95-3.29-1.8-3.75a3.78,3.78,0,0,0-2.19-.29l.83,8.75a3.77,3.77,0,0,0,2.1-.7C204.47,328.39,205,327.26,204.78,325Zm1.31,13.83c-.25-2.68-1-3.92-1.86-4.42a3.48,3.48,0,0,0-2.19-.29l1,10.09a3.41,3.41,0,0,0,2.1-.7C205.84,342.84,206.35,341.49,206.09,338.82Zm16.49-15.16c-.25-2.31-1-3.5-1.74-4.05a3.32,3.32,0,0,0-2.35-.43l1,9.72a3.41,3.41,0,0,0,2.2-.95C222.37,327.25,222.82,326,222.58,323.66Zm0,0c-.25-2.31-1-3.5-1.74-4.05a3.32,3.32,0,0,0-2.35-.43l1,9.72a3.41,3.41,0,0,0,2.2-.95C222.37,327.25,222.82,326,222.58,323.66Zm-16.49,15.16c-.25-2.68-1-3.92-1.86-4.42a3.48,3.48,0,0,0-2.19-.29l1,10.09a3.41,3.41,0,0,0,2.1-.7C205.84,342.84,206.35,341.49,206.09,338.82ZM204.78,325c-.22-2.28-.95-3.29-1.8-3.75a3.78,3.78,0,0,0-2.19-.29l.83,8.75a3.77,3.77,0,0,0,2.1-.7C204.47,328.39,205,327.26,204.78,325Zm-74.53,6.71-.16-.84h-.27l-.1.85-1,10.45L132,342Zm-34.11-5.32a1.44,1.44,0,0,0-1-.36,1.51,1.51,0,0,0-1.44,1.21,3.54,3.54,0,0,0-.18,1.21l0,19.41a2.88,2.88,0,0,0,.66,2.06,1.32,1.32,0,0,0,1,.36,1.41,1.41,0,0,0,1.43-1.21,3.16,3.16,0,0,0,.19-1.21l.05-19.4A3,3,0,0,0,96.14,326.38Zm0,0a1.44,1.44,0,0,0-1-.36,1.51,1.51,0,0,0-1.44,1.21,3.54,3.54,0,0,0-.18,1.21l0,19.41a2.88,2.88,0,0,0,.66,2.06,1.32,1.32,0,0,0,1,.36,1.41,1.41,0,0,0,1.43-1.21,3.16,3.16,0,0,0,.19-1.21l.05-19.4A3,3,0,0,0,96.14,326.38Zm34.11,5.32-.16-.84h-.27l-.1.85-1,10.45L132,342Zm0,0-.16-.84h-.27l-.1.85-1,10.45L132,342Zm-34.11-5.32a1.44,1.44,0,0,0-1-.36,1.51,1.51,0,0,0-1.44,1.21,3.54,3.54,0,0,0-.18,1.21l0,19.41a2.88,2.88,0,0,0,.66,2.06,1.32,1.32,0,0,0,1,.36,1.41,1.41,0,0,0,1.43-1.21,3.16,3.16,0,0,0,.19-1.21l.05-19.4A3,3,0,0,0,96.14,326.38Zm0,0a1.44,1.44,0,0,0-1-.36,1.51,1.51,0,0,0-1.44,1.21,3.54,3.54,0,0,0-.18,1.21l0,19.41a2.88,2.88,0,0,0,.66,2.06,1.32,1.32,0,0,0,1,.36,1.41,1.41,0,0,0,1.43-1.21,3.16,3.16,0,0,0,.19-1.21l.05-19.4A3,3,0,0,0,96.14,326.38Zm34.11,5.32-.16-.84h-.27l-.1.85-1,10.45L132,342Zm0,0-.16-.84h-.27l-.1.85-1,10.45L132,342Zm-34.11-5.32a1.44,1.44,0,0,0-1-.36,1.51,1.51,0,0,0-1.44,1.21,3.54,3.54,0,0,0-.18,1.21l0,19.41a2.88,2.88,0,0,0,.66,2.06,1.32,1.32,0,0,0,1,.36,1.41,1.41,0,0,0,1.43-1.21,3.16,3.16,0,0,0,.19-1.21l.05-19.4A3,3,0,0,0,96.14,326.38Zm0,0a1.44,1.44,0,0,0-1-.36,1.51,1.51,0,0,0-1.44,1.21,3.54,3.54,0,0,0-.18,1.21l0,19.41a2.88,2.88,0,0,0,.66,2.06,1.32,1.32,0,0,0,1,.36,1.41,1.41,0,0,0,1.43-1.21,3.16,3.16,0,0,0,.19-1.21l.05-19.4A3,3,0,0,0,96.14,326.38Zm0,0a1.44,1.44,0,0,0-1-.36,1.51,1.51,0,0,0-1.44,1.21,3.54,3.54,0,0,0-.18,1.21l0,19.41a2.88,2.88,0,0,0,.66,2.06,1.32,1.32,0,0,0,1,.36,1.41,1.41,0,0,0,1.43-1.21,3.16,3.16,0,0,0,.19-1.21l.05-19.4A3,3,0,0,0,96.14,326.38ZM77.73,274.65c-1.35-1.43-5-3.43-15-3.82q-2.64-.1-5.92-.05h0q-1.78,0-3.78.12l-.72,0-.73,0-1.51.09-2.65.19C11.64,274.1,3.85,284.8,2.83,286.5a5.06,5.06,0,0,0,1.47,2.93c3.28,3.77,12.89,9.42,40.86,12.37l.41-11.59a8.89,8.89,0,0,1,0-1.35c.85-6.74,8.87-7.23,17.42-6.76,9.63.54,15.33-1.76,15.59-3.55A4.24,4.24,0,0,0,77.73,274.65Zm.55,9.72c-4.06,1.86-10.11,2.35-15.48,2.05-10.8-.6-12.61,1.12-12.87,2.91l0,.85a1.61,1.61,0,0,0,.42.95c1.6,1.77,8,3.81,29.32,3.41A30.44,30.44,0,0,1,78.28,284.37Zm82.65,9.32c8.13-4.06,10.76-8.62,11.57-11.62-19.72,9.69-61.31,15.64-88.33,16.67a2.07,2.07,0,0,1-.7.13,2.11,2.11,0,0,1-.56-.09l-3.18.09c-18.49.34-26.29-1.08-30-2.94l-.23,6.29c9.73.87,21.46,1.43,35.64,1.52,22,.13,54.05-1.53,82.44-3.38l-6.49-2.75a2.13,2.13,0,0,1-1.32-1.92A2.15,2.15,0,0,1,160.93,293.69Z"/><path class="cls-1" d="M338.82,225.38a21.94,21.94,0,0,1,14.37,1.13,15.26,15.26,0,0,1,5.88,5,19,19,0,0,1,3,7.2,18,18,0,0,1-.26,8,23.42,23.42,0,0,1-3.24,7.22,31.79,31.79,0,0,1-11.6,10.24,42.88,42.88,0,0,1-14.59,4.58,57.66,57.66,0,0,1-15.08-.09c-2.48-.33-4.93-.79-7.34-1.36s-4.54-1.13-6.83-1.64q-6.8-1.52-13.65-2.57c-18.26-2.78-37-2.86-54.89,1.55s-34.81,13.35-47.91,27.11a78.37,78.37,0,0,1,20.22-20.22A96.32,96.32,0,0,1,233,258.94a115.83,115.83,0,0,1,28.66-5,145.52,145.52,0,0,1,29,1.51c4.78.68,9.52,1.62,14.22,2.7,2.32.53,4.74,1.14,6.95,1.74s4.37,1,6.57,1.36a53.2,53.2,0,0,0,13.2.49,37.88,37.88,0,0,0,12.54-3.25,27.14,27.14,0,0,0,10-7.7c2.58-3.28,4.26-7.36,3.81-11.42a17,17,0,0,0-1.69-6.1,12.51,12.51,0,0,0-4.23-4.69,17.81,17.81,0,0,0-6.2-2.59A27,27,0,0,0,338.82,225.38Z"/><path class="cls-1" d="M299,275.07c-8-.36-15.76-.79-23.53-.81a197.46,197.46,0,0,0-23.12,1.15,150.5,150.5,0,0,0-22.64,4.25,160.3,160.3,0,0,0-22,7.83,70.87,70.87,0,0,1,20.6-12.19,92.43,92.43,0,0,1,23.44-5.7,107.35,107.35,0,0,1,24,.09A102.52,102.52,0,0,1,299,275.07Z"/><path class="cls-1" d="M80,405.71l2.47,5,5.14-2.17,16.43-6.94a5.32,5.32,0,0,1,2-.41,5.18,5.18,0,0,1,1.91.36c.5.34,1.71,1.27,2.78,2.11C117.39,408.75,131,419.34,149,425c23.87,7.55,52,11.71,79.12,11.71s55.25-4.16,79.12-11.71c17.84-5.64,31.52-16.22,38.09-21.3,1.1-.85,2.34-1.81,2.86-2.16a5.2,5.2,0,0,1,1.87-.34,5.28,5.28,0,0,1,2.11.44l15.42,6.74,5.14,2.25,2.52-5a33.29,33.29,0,0,1,17.48-16,42.21,42.21,0,0,1-9.88-1.42A39.15,39.15,0,0,0,369.91,403l-15.42-6.74a11.14,11.14,0,0,0-8.89,0c-2.73,1.17-18.21,16.22-40.19,23.17-23.31,7.37-50.78,11.43-77.34,11.43s-54-4.06-77.34-11.43c-22-6.95-37.42-22-40.13-23.14a11,11,0,0,0-4.47-.94,11.31,11.31,0,0,0-4.35.88l-16.43,6.93a38.65,38.65,0,0,0-22.64-19.67v-15c-2-.09-4-.18-5.92-.29V387.7L60.87,389A32.92,32.92,0,0,1,80,405.71Z"/><path class="cls-1" d="M374.22,69.23l-1.82-4.38-4.67.81-46.05,8.07a5.69,5.69,0,0,1-.91.08,5.23,5.23,0,0,1-5.13-4.08l0-.14,0-.13a93,93,0,0,0-18.21-32.65c-17.13-20-40.44-30.07-69.29-30.07s-52.16,10.12-69.29,30.07a93.25,93.25,0,0,0-18.21,32.65l0,.13,0,.14a5.26,5.26,0,0,1-5.13,4.08,4.47,4.47,0,0,1-.89-.08l-47-8.09-4.68-.81L81,69.23A32.66,32.66,0,0,1,60.87,87.94l-4.08,1.34V270.79c2.19,0,4.15,0,5.92,0V93.56A38.71,38.71,0,0,0,86.44,71.47l47,8.1a12,12,0,0,0,1.89.16,11.17,11.17,0,0,0,10.9-8.67,87.51,87.51,0,0,1,17-30.39c15.95-18.58,37.75-28,64.8-28s48.85,9.43,64.8,28a87.51,87.51,0,0,1,17,30.39,11.16,11.16,0,0,0,12.82,8.5l46.07-8.07a39.07,39.07,0,0,0,24.67,22.36V291c2,.11,4,.24,5.92.37V89.47l-4.2-1.28A33.39,33.39,0,0,1,374.22,69.23Z"/><path class="cls-1" d="M53,270.92V85.7A29,29,0,0,0,79.39,60.41L135.12,70a1.48,1.48,0,0,0,1.71-1.19,94.87,94.87,0,0,1,18.3-33.55C173.07,13.83,197.61,3,228.07,3s55,10.87,72.94,32.3a94.87,94.87,0,0,1,18.3,33.55,1.49,1.49,0,0,0,.5.86A1.44,1.44,0,0,0,321,70l54.74-9.58a29.21,29.21,0,0,0,27.38,25.35V291.63l2.95.26V84.33a1.48,1.48,0,0,0-1.48-1.48,26.21,26.21,0,0,1-26.06-24.27,1.47,1.47,0,0,0-.56-1.06,1.45,1.45,0,0,0-1.17-.29l-55,9.62c-1.64-5.64-8.52-23.78-23.91-39.36C279.91,9.25,256.4,0,228.07,0S176.23,9.25,158.2,27.49c-15.39,15.58-22.28,33.73-23.91,39.37l-56-9.63a1.45,1.45,0,0,0-1.17.29,1.51,1.51,0,0,0-.56,1.06A26,26,0,0,1,51.48,82.82a1.48,1.48,0,0,0-1.43,1.48V271.09C51.07,271,52.06,271,53,270.92Z"/><path class="cls-1" d="M403.14,389.61v1.61a29.19,29.19,0,0,0-27.32,24.92l-25.22-11a1.48,1.48,0,0,0-1.72.4c-.3.35-30.59,35-120.81,35s-120.51-34.63-120.81-35a1.47,1.47,0,0,0-1.13-.52,1.49,1.49,0,0,0-.58.11L79.34,416.16A29,29,0,0,0,53,391.29V367.9l-3-.21v25a1.48,1.48,0,0,0,1.43,1.48A26,26,0,0,1,76.6,418.4a1.51,1.51,0,0,0,.7,1.16,1.47,1.47,0,0,0,1.35.1l27.09-11.43c2.33,2.44,10.23,9.87,26.18,17.33,17.44,8.16,48.28,17.89,96.15,17.89s78.7-9.73,96.15-17.89c15.93-7.45,23.82-14.87,26.17-17.32l26.09,11.42a1.52,1.52,0,0,0,1.36-.09,1.49,1.49,0,0,0,.71-1.17,26.2,26.2,0,0,1,26.06-24.26,1.48,1.48,0,0,0,1.48-1.48v-3.22Z"/><path class="cls-2" d="M243,116c-.71-1.39-2.25-4.89-4.65-12.62-.52-1.66-1.06-3.44-1.63-5.3h0c-.79-2.64-1.62-5.43-2.44-8.3-1.68-5.88-3.32-12-4.57-17.55-.07-.32-.15-.64-.21-1-.16-.71-.31-1.4-.45-2.08l-.21-1c-.14-.66-.27-1.32-.39-2C226.54,56.37,225.53,49,225,44.37c-.38-3.34-.5-5.9-.53-7.45a2.54,2.54,0,0,0-1.88-2.39,28,28,0,0,0-7.12-.75h-.26a84.77,84.77,0,0,0-15.94,1.89c-14.24,2.86-20.13,6.55-22,8a2.53,2.53,0,0,0-.84,2.83c.44,1.28,1.17,3.47,2.09,6.63.3,1,.51,1.59.87,2.9l-10.06.86s-3.55.23-4.86,2.19c-1,1.44-1.37,2.88-.75,7,0,.1,2.19,12.09,2.19,12.09,1,5.6,4.24,28.77,6.37,32.93a7.15,7.15,0,0,0,.7,1.16,8.31,8.31,0,0,0,1.9,1.89,9.79,9.79,0,0,0,2.3,1.22l.6.21.66.17c.4.09.78.16,1.15.22.74.12,1.46.23,2.18.32,1.44.19,2.86.35,4.29.5l2.87.29c.3,5,.39,8.61.41,10a2.51,2.51,0,0,0,1.2,2.1c1.78,1.12,4.82,1.68,9,1.68h.24a94.72,94.72,0,0,0,17.55-2.16q6.22-1.24,11.11-2.72h0l1.09-.34c1.08-.33,2.11-.69,3.09-1,1.27-.47,2.44-.94,3.51-1.43,3.86-1.76,5.68-3.33,6.53-4.35A2.53,2.53,0,0,0,243,116Zm-2.21,1.19c-.56.67-2,2-5.66,3.69-4.39,2-10.54,3.8-18.28,5.35a93.21,93.21,0,0,1-17.07,2.12h-.24c-4.87,0-6.92-.82-7.7-1.31a.05.05,0,0,1,0,0c0-1.71-.16-7-.7-14.08l-1.74-.44c-.65-.17-1.31-.33-2-.51,0,0-6.11-1.68-7.74-2.25-1-.34-2.87-.8-3.43-4.55-1.22-8.2-3.66-29.63-3.88-31.59,1.22,6.61,5.06,27.77,5.72,31a4.15,4.15,0,0,0,1.27,2.47c.68.62,2.36.75,3.12.88,1.43.24,8.26.48,8.26.48,0-.27-.05-.54-.08-.82-.09-.9-2.19-22.28-4.06-31.48-1.17-5.85-2.33-10.86-3.37-15l-8.6.66-2.74.21a11.43,11.43,0,0,0-3.14.62,3.16,3.16,0,0,0-2.16,3.79c-.58-1.52-.54-3.69.68-4.84A6.67,6.67,0,0,1,171,60.17s7.49-.66,11.69-1.1c-.68-2.64-1.3-4.86-1.82-6.63-.94-3.21-1.68-5.44-2.14-6.75,0,0,0-.06,0-.07,1.73-1.35,7.25-4.78,21-7.54a84.1,84.1,0,0,1,15.48-1.84h.24a25.13,25.13,0,0,1,6.48.67A.06.06,0,0,1,222,37c0,1.61.15,4.25.54,7.68.56,4.94,1.68,13.11,3.87,24s6.41,25.29,9.57,35.46a90.82,90.82,0,0,0,4.81,13A.06.06,0,0,1,240.8,117.18Zm-60-13.45q-2.34-12.08-4.61-24.16-.57-3-1.11-6c-.18-1-.36-2-.53-3l-.12-.74-.05-.36c0-.1,0-.2,0-.3a4.15,4.15,0,0,1,0-1.07,1.6,1.6,0,0,1,.26-.69A1.09,1.09,0,0,1,175,67a1,1,0,0,1,.25-.07h.17l.38,0,1.54-.11,4.65-.33c.7,3,1.44,6.37,2.19,10.07,1.49,7.36,3.19,23.16,3.79,29l-.94,0c-1,0-1.92,0-2.87-.08l-.71,0-.34,0h-.33a3.52,3.52,0,0,1-1-.26,1.65,1.65,0,0,1-.67-.54,1.58,1.58,0,0,1-.2-.36.66.66,0,0,1-.06-.2s0-.06,0-.09v-.11Z"/><path class="cls-1" d="M207,42.19a2.74,2.74,0,0,1,1.8-1h.3a2.73,2.73,0,0,1,1.84.7,2.86,2.86,0,0,1,0,4.24,2.78,2.78,0,0,1-1.85.72h-.25a2.65,2.65,0,0,1-1.84-1,2.49,2.49,0,0,1-.55-1.79h0A2.52,2.52,0,0,1,207,42.19Z"/><path class="cls-1" d="M215.29,57.05h7.34s-1.1-7.26-1.66-12.22c-.31-2.74-.54-5.34-.54-5.34a57.82,57.82,0,0,0-8,2,4.06,4.06,0,0,1,.64,2.21A4.16,4.16,0,0,1,212,46.58,4.22,4.22,0,0,1,209.2,48a2.3,2.3,0,0,1-.37,0,4.37,4.37,0,0,1-2.8-1,4.43,4.43,0,0,1-.64-.66,12.85,12.85,0,0,0-1.26,1.46L192,48a1.88,1.88,0,0,0-1.84-1.48,1.85,1.85,0,0,0-1.27.5,3,3,0,0,0-5.77,1.17l-1.79,0a.23.23,0,0,0,0-.11c.08.29.55,1.94,1.12,3.86.61,2.08,1.44,5,1.45,5.06h25.58c2.75,11.41,5,21.46,6.9,28.79,6.16,24.33,13.55,26.79,13.55,26.79C225.07,104.66,216.55,63.26,215.29,57.05Zm-2.39-8.38v0a2.61,2.61,0,0,1,.84-1.79,2.48,2.48,0,0,1,1.66-.64h.14a2.44,2.44,0,0,1,0,4.88h-.18a2.45,2.45,0,0,1-1.63-.62A2.57,2.57,0,0,1,212.9,48.67Z"/><path class="cls-1" d="M215.51,47.26a1.42,1.42,0,0,1,1.05.35,1.42,1.42,0,0,1,0,2.08,1.41,1.41,0,0,1-1,.36,1.41,1.41,0,0,1,0-2.79Z"/><path class="cls-2" d="M241.4,47.26a1.4,1.4,0,0,0-1.05,2.43,1.38,1.38,0,0,0,1,.36,1.41,1.41,0,0,0,0-2.79Z"/><path class="cls-2" d="M250,42.19a2.72,2.72,0,0,0-1.8-1h-.3a2.73,2.73,0,0,0-1.84.7,2.84,2.84,0,0,0-.95,2.12,2.9,2.9,0,0,0,.93,2.12,2.8,2.8,0,0,0,1.85.72h.26a2.63,2.63,0,0,0,1.83-1,2.54,2.54,0,0,0,.56-1.79h0A2.57,2.57,0,0,0,250,42.19Z"/><path class="cls-2" d="M275.56,48.24l-1.79,0A3,3,0,0,0,268,47a1.83,1.83,0,0,0-1.26-.5A1.88,1.88,0,0,0,264.89,48l-12.11-.27a12.85,12.85,0,0,0-1.26-1.46,4.43,4.43,0,0,1-.64.66,4.34,4.34,0,0,1-2.79,1,2.36,2.36,0,0,1-.38,0,4.22,4.22,0,0,1-2.83-1.39,4.16,4.16,0,0,1-1.09-2.84,4.24,4.24,0,0,1,.64-2.21,58.19,58.19,0,0,0-8-2s-.23,2.6-.54,5.34c-.56,5-1.66,12.21-1.66,12.22h7.34c-.72,3.58-3.87,18.88-7.33,32.71.82,2.87,1.65,5.66,2.44,8.3a103.42,103.42,0,0,0,3.82-12.22c1.86-7.33,4.15-17.38,6.9-28.79H273s.84-3,1.45-5.06c.57-1.92,1-3.57,1.12-3.86A.23.23,0,0,0,275.56,48.24ZM244,48.67a2.57,2.57,0,0,1-.86,1.8,2.45,2.45,0,0,1-1.63.62h-.17a2.44,2.44,0,0,1,0-4.88h.14a2.48,2.48,0,0,1,1.66.64,2.61,2.61,0,0,1,.84,1.79Z"/><path class="cls-2" d="M292.43,59.08c-1.31-2-4.86-2.19-4.86-2.19L277.51,56c.36-1.31.57-1.88.87-2.9.92-3.16,1.65-5.35,2.09-6.63a2.52,2.52,0,0,0-.83-2.83c-1.88-1.45-7.77-5.14-22-8a84.68,84.68,0,0,0-15.94-1.89h-.25a28.08,28.08,0,0,0-7.13.75,2.54,2.54,0,0,0-1.88,2.39c0,1.55-.15,4.11-.53,7.45-.51,4.59-1.53,12-3.44,21.82.12.64.25,1.3.39,2l.21,1c.14.68.29,1.37.45,2.08.06.32.14.64.21,1,.27-1.22.53-2.42.76-3.57,2.19-10.88,3.31-19,3.87-24,.39-3.43.51-6.07.55-7.68a.06.06,0,0,1,0-.06,25.17,25.17,0,0,1,6.49-.67h.23a84.1,84.1,0,0,1,15.48,1.84c13.72,2.76,19.24,6.19,21,7.54a.06.06,0,0,1,0,.07c-.46,1.31-1.2,3.54-2.14,6.75-.51,1.77-1.14,4-1.82,6.63,4.2.44,11.69,1.1,11.69,1.1a6.65,6.65,0,0,1,3.76,1.34c1.22,1.15,1.26,3.32.68,4.84a3.16,3.16,0,0,0-2.16-3.79,11.43,11.43,0,0,0-3.14-.62l-2.74-.21-8.6-.66c-1,4.12-2.19,9.13-3.37,15-1.87,9.2-4,30.58-4.06,31.48,0,.28-.05.55-.08.82,0,0,6.83-.24,8.27-.48.76-.13,2.44-.26,3.11-.88a4.25,4.25,0,0,0,1.28-2.47c.65-3.19,4.49-24.35,5.71-31-.22,2-2.66,23.39-3.88,31.59-.56,3.75-2.43,4.21-3.43,4.55-1.63.57-7.74,2.25-7.74,2.25-.65.18-1.31.34-2,.51l-1.74.44c-.54,7.06-.67,12.37-.69,14.08a.07.07,0,0,1,0,0c-.78.49-2.83,1.31-7.7,1.31h-.23a93.3,93.3,0,0,1-17.08-2.12c-2.66-.53-5.12-1.09-7.4-1.68-1,.35-2,.71-3.09,1l-1.09.34q4.88,1.47,11.09,2.72a94.72,94.72,0,0,0,17.55,2.16h.25c4.19,0,7.22-.56,9-1.68a2.52,2.52,0,0,0,1.19-2.1c0-1.35.11-5,.41-10l2.87-.29c1.43-.15,2.85-.31,4.29-.5.72-.09,1.44-.2,2.19-.32.37-.06.74-.13,1.14-.22l.66-.17.6-.21a9.79,9.79,0,0,0,2.3-1.22,8.31,8.31,0,0,0,1.9-1.89,8,8,0,0,0,.71-1.16c2.12-4.16,5.32-27.33,6.36-32.93l2.2-12.09C293.8,62,293.39,60.52,292.43,59.08Zm-9.83,10,0,.3-.06.36-.12.74c-.16,1-.35,2-.52,3q-.56,3-1.12,6-2.26,12.09-4.61,24.16l0,.09v.11a.29.29,0,0,1,0,.09.66.66,0,0,1-.06.2,1.27,1.27,0,0,1-.2.36,1.65,1.65,0,0,1-.67.54,3.45,3.45,0,0,1-1,.26h-.32l-.35,0-.71,0c-.94,0-1.9.06-2.87.08l-.94,0c.6-5.84,2.3-21.64,3.8-29,.74-3.7,1.48-7.06,2.18-10.07l4.66.33,1.53.11.38,0h.18a1.09,1.09,0,0,1,.24.07,1,1,0,0,1,.42.34,1.6,1.6,0,0,1,.26.69A4.15,4.15,0,0,1,282.6,69.12Z"/></g></g></svg>