<svg xmlns="http://www.w3.org/2000/svg" xmlns:xlink="http://www.w3.org/1999/xlink" viewBox="0 0 155.88 311.38"><defs><style>.cls-1{filter:url(#luminosity-noclip);}.cls-2{mask:url(#mask);}.cls-3{fill:#cd4320;}.cls-4{fill:#e8e8e8;}</style><filter id="luminosity-noclip" x="-5.89" y="1.64" width="165.52" height="226.13" filterUnits="userSpaceOnUse" color-interpolation-filters="sRGB"><feFlood flood-color="#fff" result="bg"/><feBlend in="SourceGraphic" in2="bg"/></filter><mask id="mask" x="-5.89" y="1.64" width="165.52" height="226.13" maskUnits="userSpaceOnUse"><rect class="cls-1" x="-5.89" y="1.64" width="165.52" height="136.06"/></mask></defs><g id="Layer_2" data-name="Layer 2"><g id="barrel"><g class="cls-2"><path id="Level" class="cls-3" d="M112.52,28.47c-15-11.5-32.3-14.2-50.5-9.3-18.4,4.9-31.3,16.6-39.7,33.3-14.4,28.4-10.1,62.8,9,85,5.9,6.8,12.5,12.6,20.8,16.3a6.58,6.58,0,0,1,4.2,5.5c2.7,14.9,5.8,29.7,8.7,44.6.7,3.6-1.5,6.2-3.3,8.7a26.9,26.9,0,0,0-2.8,4.6c-1.6,1.7-2.5.8-3.1-.3l4.3,9.2c-.3-.9-.2-2.4-.1-4.8a5.16,5.16,0,0,0,1.7-3.7c2.3-1.9,4.1-2.5,7-.2,6,4.8,12.5,3.1,18.1-.7,3.8-2.5,5.2-.9,6.5,2.1.9,2.1,1.8,4.3,2.6,6.4.1.7.2,1.3.3,2-.1.2-.1.4-.2.6l4.7-12.1c0,.1-.1.1-.1.2-3.5,2.3-7.3.6-9.1-4.8a25,25,0,0,1-.1-16c1.6-4.5,1-8.9,2.3-13.3,2.3-7.9,3.7-16.1,5.4-24.1.6-2.6,2.7-3.3,4.6-4.1a50.61,50.61,0,0,0,18.5-13.1c9.3-10.8,16.2-23.5,18.3-38.1C144.82,72.57,136.82,47.27,112.52,28.47Zm-16.9,124.3c-2.4,17.4-5.7,34.7-8.6,52-.5,3-5.4,6-8.6,5.3-3.5-.8-3.6-3.6-3.8-6.5a228.65,228.65,0,0,0-2.6-23.2c-1.3-8.6-1-17.5-1.4-26.2-.1-2.5,1.6-3.1,3.5-3.4,2.9-.6,5.8-1,8.8-1.4,0-.3.1-.5.1-.8a36.16,36.16,0,0,1-4.7-1.3c-6.7-2.2-9.6-8.6-7.2-15.3,1.1-3.1.6-6.5,2.2-9.5.2-.3.8-.9-.1-1.1a6.13,6.13,0,0,0-1.8-.1c-.3,2.4-3,3.1-3.4,5.7-1.7,12.1-1.1,24.2,0,36.3,1.3,13.5,2.8,26.9,4.9,40.3.3,1.6-.1,3.3-1.8,3.5-1.9.3-2.9-1-3.2-3-.9-6-2.4-11.9-2.8-17.9-.8-10-2.9-19.8-4.3-29.7a62.91,62.91,0,0,1,2.2-28.6c.9-2.8,2.6-5.4,3.8-8.2,2-4.5,5.8-6.4,10.8-6.3,6.1.2,10.6,2.7,12.9,8.4C94.52,131.87,97.12,142.17,95.62,152.77Z"/></g><g id="Logo"><path class="cls-4" d="M103.82,99.57a1.27,1.27,0,0,1-.1.6h0a1.36,1.36,0,0,1-.9.9c-.1,0-.1,0-.2-.1l-.2-.1a2.19,2.19,0,0,0-.5-.3,1.14,1.14,0,0,0-.6.3,7.27,7.27,0,0,0-.8.9,18.65,18.65,0,0,0-2.2,3.9l-.4,1c-.1.2-.2.3-.3.5s-.2.2-.3.2a.6.6,0,0,1-.4-.1c-.1-.1-.3-.1-.4-.2l-.3-.3a.37.37,0,0,1-.1-.3v-.3a.76.76,0,0,1,.2-.4,18.77,18.77,0,0,0,1.7-5.7.86.86,0,0,0-.3-.6l-.2-.1c-.1-.1-.1-.1-.1-.2a.37.37,0,0,1,.1-.3c.1-.1.2-.2.3-.2a1.85,1.85,0,0,1,.7-.2,1.27,1.27,0,0,1,.6.1.76.76,0,0,1,.4.2.86.86,0,0,1,.3.6,1.7,1.7,0,0,1-.1.7,1.85,1.85,0,0,1-.2.7c-.1.2-.1.4-.2.6a.6.6,0,0,0-.1.4v.4l.3-.3.3-.6a7.55,7.55,0,0,1,2.1-2.6,1.85,1.85,0,0,1,.7-.2.91.91,0,0,1,.7.3C103.72,99.07,103.82,99.27,103.82,99.57Z"/><path class="cls-4" d="M95.72,98.67a1.85,1.85,0,0,0-.7-.2c-.3,0-.6.3-1,.9a1.8,1.8,0,0,0-1.6-.9,3.1,3.1,0,0,0-2.2.9,5.74,5.74,0,0,0-1.9,2.2,7.54,7.54,0,0,0-.9,2.9,2.88,2.88,0,0,0,.5,2,2,2,0,0,0,.7.6,1.49,1.49,0,0,0,.9.2,3.55,3.55,0,0,0,1-.2,4.52,4.52,0,0,0,1.9-2.2c0,.3-.1.6-.1.9a1.27,1.27,0,0,0,.1.6,1.09,1.09,0,0,0,.8.8,1.57,1.57,0,0,0,1.6-.3,1.65,1.65,0,0,0,.8-1.3.22.22,0,0,0-.2-.2c-.1,0-.2.1-.3.1a1.27,1.27,0,0,1-.6.1c-.4,0-.5-.3-.5-.8v-.3c0-.7.8-2.5,2.2-5.4h0C96.12,99.17,96,99,95.72,98.67Zm-2.8,3.3a10.91,10.91,0,0,1-1.9,3.3l-.2.2-.2.2c-.1,0-.1.1-.2.1a1.33,1.33,0,0,1-.7.3c-.4,0-.7-.3-.7-1a7,7,0,0,1,1.1-3.7,5.5,5.5,0,0,1,.7-.9h0l.1-.1H91a1.76,1.76,0,0,1,.5-.4h0a.1.1,0,0,0,.1-.1h.5a.9.9,0,0,1,.5.1.22.22,0,0,1,.2.2.91.91,0,0,1,.3.7A1.68,1.68,0,0,1,92.92,102Z"/><path class="cls-4" d="M86.72,95.07a5.39,5.39,0,0,0-1.3-.7,8,8,0,0,0-1.5-.3h-1.2a7.59,7.59,0,0,0-3.6,1.1c-.6.4-.6.8-.2,1.2a.76.76,0,0,0,.4.2.6.6,0,0,0,.4.1.52.52,0,0,0,.4-.2,5.56,5.56,0,0,1,1.7-.9c.3-.1.7-.2,1-.3a3.08,3.08,0,0,1,1-.1,2,2,0,0,1,.8.1,1.34,1.34,0,0,1,1.1,1.5,3.31,3.31,0,0,1-1.6,2.8,6.63,6.63,0,0,1-3.4,1.2,32.9,32.9,0,0,1,2-3.4c.1-.2,0-.4-.3-.7a2.19,2.19,0,0,0-.5-.3.9.9,0,0,0-.5-.1.55.55,0,0,0-.5.3,14,14,0,0,0-2.2,4.4,11.7,11.7,0,0,0-.5,2,8.75,8.75,0,0,0-.2,1.6,2,2,0,0,0,.2,1.1,2,2,0,0,0,2.2,1.3,6.72,6.72,0,0,0,2.4-.4,3.7,3.7,0,0,0,1.1-.5,6.47,6.47,0,0,0,.9-.8,2.07,2.07,0,0,0,.6-1,2.55,2.55,0,0,0,0-2.4,1.89,1.89,0,0,0-1-.8,6.83,6.83,0,0,0,2.3-1.8,4.3,4.3,0,0,0,1-2.5A4.53,4.53,0,0,0,86.72,95.07Zm-3.9,10.4a2.66,2.66,0,0,1-1,.6c-.2.1-.3.1-.5.2a.75.75,0,0,0-.5.1h-.3c-.1,0-.1,0-.2-.1s-.1-.1-.2-.1-.1-.1-.2-.1a.52.52,0,0,1-.2-.4v-.1c0-.1-.1-.3,0-.4a8.87,8.87,0,0,1,.7-2.8h0a.37.37,0,0,0,.3-.1c.1,0,.2-.1.4-.1a.37.37,0,0,0,.3-.1,4.25,4.25,0,0,1,1.1-.2h.1a.6.6,0,0,1,.4.1h.1a2.19,2.19,0,0,1,.5.3,1.5,1.5,0,0,1,.4,1.1A3.67,3.67,0,0,1,82.82,105.47Z"/><path class="cls-4" d="M61.22,94.67a1.85,1.85,0,0,1-.2.7.78.78,0,0,1-.4.4,2,2,0,0,1-1.3.4,14.16,14.16,0,0,1-1.9-.1,8.8,8.8,0,0,0-.5,1.5l-.8,2.8a4.87,4.87,0,0,1,1.2-.1,1.7,1.7,0,0,1,.7.1c.2.1.3.1.5.2a1,1,0,0,1,.5.8c0,.2-.1.5-.4.5h-1.2a9.7,9.7,0,0,0-1.7.1,16.89,16.89,0,0,1-1.7,3.6,4.3,4.3,0,0,1-2.1,1.9c-.1,0-.2.1-.3.1a.37.37,0,0,1-.3-.1.35.35,0,0,1-.2-.1.52.52,0,0,1-.2-.4.37.37,0,0,1,.1-.3c.8-.6,1.6-2,2.5-4.4h-.6c-.1,0-.1,0-.2-.1s-.1-.1-.2-.1-.2-.2-.2-.3.1-.2.1-.3a1.38,1.38,0,0,1,.4-.3,4.18,4.18,0,0,1,1-.4l.5-1.4a10.39,10.39,0,0,1,1.5-3.4c-.5,0-.8-.1-1-.1a3.19,3.19,0,0,0-1.4.3c-.3.1-.4.3-.6.6a.76.76,0,0,0-.2.5c0,.2-.1.3-.2.3s-.2.1-.3.1a.6.6,0,0,1-.4-.1l-.3-.3a1,1,0,0,1-.2-.9,1.61,1.61,0,0,1,.3-.9,1.34,1.34,0,0,1,.7-.6,2.82,2.82,0,0,1,1.5-.4,7.57,7.57,0,0,1,1.5.1c.5.1.9.1,1.4.2a20.66,20.66,0,0,0,2.4.3,2.2,2.2,0,0,0,.8-.1.52.52,0,0,0,.4-.2.37.37,0,0,1,.3-.1c.1,0,.2-.1.2,0C61.22,94.27,61.32,94.47,61.22,94.67Z"/><path class="cls-4" d="M67.52,100.07a2.17,2.17,0,0,0-2.3-1.5,3.84,3.84,0,0,0-2.5.9,4.74,4.74,0,0,0-1,1,7.23,7.23,0,0,0-1.5,4.1,5,5,0,0,0,.2,1.2,4.05,4.05,0,0,0,.5.9,2.18,2.18,0,0,0,.8.5,4.25,4.25,0,0,0,1.1.2,3.08,3.08,0,0,0,1.3-.3,4.56,4.56,0,0,0,2.2-1.7,7.07,7.07,0,0,0,1.3-2.6h0A5,5,0,0,0,67.52,100.07Zm-1.7,2a24725056409673,24725056409673,0,0,1-.4,1.2v.1c-.1.2-.1.3-.2.5s-.1.3-.2.4v.2a3.59,3.59,0,0,1-.7,1l-.2.2-.2.2-.1.1c-.1.1-.2.2-.3.2a1.14,1.14,0,0,1-.8.3.76.76,0,0,1-.5-.2l-.1-.1h0c0-.1,0-.1-.1-.2h0c0-.1,0-.1-.1-.2h0v-1.4a24725056409710.3,24725056409710.3,0,0,0,.2-.6v-.1a.37.37,0,0,1,.1-.3c0-.1.1-.2.1-.3V103c0-.1.1-.2.1-.3l.3-.6c.1-.1.1-.3.2-.4s.1-.1.1-.2.1-.2.2-.3.1-.2.2-.3a1.76,1.76,0,0,1,.4-.5c0-.1.1-.1.2-.2s.1-.1.2-.2a1.38,1.38,0,0,1,.4-.3l.6-.3a.6.6,0,0,1,.4.1h0l.1.1.1.1a1.5,1.5,0,0,1,.2,1A9.32,9.32,0,0,0,65.82,102.07Z"/><path class="cls-4" d="M76.42,100.07a2.17,2.17,0,0,0-2.3-1.5,3.84,3.84,0,0,0-2.5.9,4.74,4.74,0,0,0-1,1,5.67,5.67,0,0,0-.8,1.3,7.22,7.22,0,0,0-.7,2.8,5,5,0,0,0,.2,1.2,2.36,2.36,0,0,0,.6.9,2.18,2.18,0,0,0,.8.5,4.25,4.25,0,0,0,1.1.2,3.08,3.08,0,0,0,1.3-.3,6.2,6.2,0,0,0,2.2-1.7,9.06,9.06,0,0,0,1.3-2.6A6.2,6.2,0,0,0,76.42,100.07Zm-1.9,2.6a1.42,1.42,0,0,1-.2.6c-.2.4-.3.8-.5,1.2h0v.2c-.1.1-.1.2-.2.3l-.1.1-.1.1a995164323832.21,995164323832.21,0,0,0-.2.2c0,.1-.1.1-.2.2l-.2.2c-.1,0-.1.1-.2.1h0l-.2.2a1.14,1.14,0,0,1-.8.3.71.71,0,0,1-.6-.3c0-.1-.1-.1-.1-.2v-1a1.27,1.27,0,0,1,.1-.6V104a.37.37,0,0,1,.1-.3v-.1c0-.1.1-.2.1-.3s.1-.2.1-.3v-.1c0-.1.1-.2.1-.3l.3-.6.3-.6a.1.1,0,0,1,.1-.1.1.1,0,0,1,.1-.1c0-.1.1-.2.2-.3a1.76,1.76,0,0,1,.4-.5c0-.1.1-.1.2-.2l.2-.2a1.38,1.38,0,0,1,.4-.3l.6-.3a.6.6,0,0,1,.4.1,1.38,1.38,0,0,1,.3.4.9.9,0,0,1,.1.5v.2A12.27,12.27,0,0,0,74.52,102.67Z"/><path class="cls-4" d="M74.72,39.27a1.42,1.42,0,0,1-.6.2.91.91,0,0,1-.7-.3l-2.5-3.1a.93.93,0,0,1,.1-1.3h0a.94.94,0,0,1,1.3.1l2.5,3.1A.86.86,0,0,1,74.72,39.27Z"/><path class="cls-4" d="M78.12,34v3.6a.9.9,0,0,1-.9.9h0a.9.9,0,0,1-.9-.9V34a.77.77,0,0,1,.9-.8A.82.82,0,0,1,78.12,34Z"/><path class="cls-4" d="M83.52,36,81,39.07a.91.91,0,0,1-.7.3,1.42,1.42,0,0,1-.6-.2.85.85,0,0,1-.1-1.3l2.5-3.1a.93.93,0,0,1,1.3-.1A1.23,1.23,0,0,1,83.52,36Z"/><path class="cls-4" d="M107.62,65.77a.9.9,0,0,1-.9.9h-4.4v.5a.85.85,0,0,1-1.7.1v-.1a8.29,8.29,0,0,0-.7-4.1.89.89,0,0,1,1.6-.8,7.86,7.86,0,0,1,.8,2.6h4.4A.9.9,0,0,1,107.62,65.77Z"/><path class="cls-4" d="M106.72,76h-4a.9.9,0,0,0-.9.9v.3a2.12,2.12,0,0,1-1.2,1.9l-1.8-6.9h1.3a.79.79,0,0,0,.8-.8.88.88,0,0,0-.8-.9h-2.5a4.64,4.64,0,0,1-4-4.6v-2a.9.9,0,0,0-.9-.9h-2.3a2.9,2.9,0,0,1-2.9-2.9V60h7.1a5.58,5.58,0,0,1,3.3,1h0a.87.87,0,0,0,.9-1.5,7.92,7.92,0,0,0-4-1.3,11.63,11.63,0,0,0-4.3-4.5c-.3-1-.6-2.3-1-3.5-.3-.9-.7-2.2-1.1-3.2a2.75,2.75,0,0,0,.6-2.6,2.88,2.88,0,0,0-3.5-2l-4,1.1a2.86,2.86,0,0,0-.2,5.5c.1.5.2,1,.3,1.7v.1a.8.8,0,0,0,1.1.6.92.92,0,0,0,.7-1.1c-.2-.9-.3-1.6-.4-2.2a1.09,1.09,0,0,0-.8-.8,1.08,1.08,0,0,1-1-.8,1,1,0,0,1,.8-1.3l4-1.1a1.37,1.37,0,0,1,1.2.4,1.1,1.1,0,0,1-.3,1.5.91.91,0,0,0-.3,1.1q.45,1.2,1.2,3.6c.4,1.3.8,2.7,1.1,3.7a1,1,0,0,0,.4.5,11.66,11.66,0,0,1,3.5,3.1h-6a1.29,1.29,0,0,0-1.2,1.2V60a4.65,4.65,0,0,0,.5,2.1c-.3.2-.5.4-.8.6a2.94,2.94,0,0,0-2.3-1.2V61a10.78,10.78,0,0,1,1.5-4.9.82.82,0,0,0,.1-.7,19.45,19.45,0,0,0-.5-2,.8.8,0,0,0-1-.6.87.87,0,0,0-.7,1,13.64,13.64,0,0,1,.4,1.7,12.86,12.86,0,0,0-1.5,5.4v.5h-.5a3.14,3.14,0,0,0-.7,6.2,3.13,3.13,0,0,0,1.3,4.2v.1a3.09,3.09,0,0,0,1,4.3,3,3,0,0,0-.6,1.8,3.12,3.12,0,0,0,3.1,3.1h1.4l.7,2.5a2.23,2.23,0,0,0,2,1.6.75.75,0,0,0,.5-.1l9.6-2.6a2,2,0,0,0,1.5-1.6,3.75,3.75,0,0,0,2.7-3.2h3.2a.9.9,0,0,0,.9-.9C107.62,76.27,107.22,76,106.72,76Zm-20.8-10.1c0-.1.1-.1.1-.2s.1-.5.2-.7v-.4a6.28,6.28,0,0,1,1.2-1.1,4.62,4.62,0,0,0,3,1.1h1.4v1.6a3,3,0,0,0,.2,1l.3.9c0,.1.1.2.1.3s.1.2.2.3.1.2.1.3.2.2.2.3.2.3.3.4.1.2.2.3.2.3.4.4a5,5,0,0,0,.8.7,4.05,4.05,0,0,0,.9.5c.3.1.7.3,1,.4h0a.75.75,0,0,1-.1.5v.2h0c0,.1-.1.3-.1.4h0c0,.1-.1.3-.1.4h0c0,.1,0,.1-.1.2a.35.35,0,0,1-.1.2h0a.76.76,0,0,0-.2.4h0v.2a2.18,2.18,0,0,1-.4.5c-.1.1-.2.3-.4.4l-.3.3a1.38,1.38,0,0,1-.4.3h0a.52.52,0,0,1-.4.2c-.1.1-.3.1-.4.2h0c-.1.1-.3.1-.4.2h0c-.2.1-.5.1-.7.2h-.9a4.87,4.87,0,0,1-1.2-.1h0a.35.35,0,0,0-.1-.2.35.35,0,0,1-.1-.2c0-.1-.1-.1-.1-.2s-.1-.1-.1-.2l-.2-.2c0-.1-.1-.1-.2-.2a.35.35,0,0,0-.2-.1l-.2-.2h0a.76.76,0,0,0,.2-.4h0c.1-.1.1-.2.2-.3s.1-.2.1-.3a.37.37,0,0,1,.1-.3v-1.3a.76.76,0,0,0-.2-.5,4.35,4.35,0,0,0-.4-.7h0l-.3-.3-.2-.2c-.1-.1-.2-.1-.3-.2s-.1-.1-.2-.1h0c0-.1.1-.1.1-.2s.1-.1.1-.2a.35.35,0,0,1,.1-.2c0-.1.1-.2.1-.3s.1-.2.1-.3h0v-.8a.6.6,0,0,0-.1-.4.37.37,0,0,0-.1-.3v-.1a.1.1,0,0,0-.1-.1h0v-.1a2.19,2.19,0,0,0-.3-.5.1.1,0,0,0-.1-.1l-.1-.1-.2-.2-.2-.2h0a1.61,1.61,0,0,0-.7-.4c-.2-.1-.3-.1-.5-.2h0C85.92,66,85.92,66,85.92,65.87ZM81,66a.75.75,0,0,1-.5-.1c-.1,0-.1-.1-.2-.1h0l-.2-.2-.2-.2h0c0-.1-.1-.1-.1-.2h0v-.1h0v-.4a.75.75,0,0,1,.1-.5A.35.35,0,0,1,80,64h0l.2-.2h0l.2-.2h0c.1,0,.1-.1.2-.1a.9.9,0,0,1,.5-.1h2.5a.1.1,0,0,1,.1.1h0l.1.1.1.1h0a.1.1,0,0,0,.1.1l.1.1h0c0,.1.1.1.1.2h0a.35.35,0,0,0,.1.2v.3a.75.75,0,0,1-.1.5v.1c0,.1-.1.1-.1.2h0c0,.1-.1.1-.2.2h0a1.09,1.09,0,0,1-.9.4Zm1.5,4.3a.1.1,0,0,1-.1-.1h-.1l-.1-.1a.1.1,0,0,1-.1-.1h0l-.1-.1h0a.1.1,0,0,0-.1-.1v-.1h0a.35.35,0,0,0-.1-.2V69h0c0-.1.1-.1.1-.2h0a.1.1,0,0,1,.1-.1v-.1h0l.1-.1.2-.2h0l.1-.1h3.3l.1.1a.1.1,0,0,1,.1.1l.1.1h0l.1.1h0c0,.1.1.1.1.2h0c0,.1.1.1.1.2h0v.6c0,.1,0,.1-.1.2h0V70h0v.1a.1.1,0,0,1-.1.1h0a.1.1,0,0,0-.1.1l-.1.1h-3A.6.6,0,0,1,82.52,70.27Zm.4,3.2a1.05,1.05,0,0,1,.5-.9l.1-.1a.1.1,0,0,0,.1-.1h.1a.35.35,0,0,1,.2-.1h2.9c.1,0,.1,0,.2.1s.1,0,.2.1h0l.2.2h0c.1,0,.1.1.2.2h0a.35.35,0,0,1,.1.2v.1a1.27,1.27,0,0,1,.1.6v.3a.35.35,0,0,1-.1.2h0v.1h0c0,.1-.1.1-.2.2h0l-.1.1h0a.1.1,0,0,0-.1.1h-2.9C83.42,74.77,82.82,74.17,82.92,73.47Zm5.4,5.3h0c0,.1-.1.1-.2.2a.35.35,0,0,1-.2.1h-2.6a.75.75,0,0,1-.5-.1.35.35,0,0,1-.2-.1h0v-.1l-.1-.1-.2-.2h0a.1.1,0,0,0-.1-.1v-.1h0v-.9c0-.1,0-.2.1-.2h0c0-.1.1-.1.1-.2h0c0-.1.1-.1.2-.2l.2-.2a.76.76,0,0,1,.5-.2h2.4a1.45,1.45,0,0,1,.7.2h0c.1,0,.1.1.2.2h0a.1.1,0,0,0,.1.1l.1.1h0c0,.1.1.1.1.2a.9.9,0,0,1,.1.5.75.75,0,0,1-.1.5h0a2.76,2.76,0,0,0-.6.6Zm10.9,1.7v.1a.22.22,0,0,1-.2.2l-9.6,2.6h-.3l-.1-.1h0l-.6-2.2a1.61,1.61,0,0,0,.7-.4c.1-.1.2-.2.3-.2h0l.1-.1.3-.3.1-.1h0a.1.1,0,0,1,.1-.1l.3-.6a.6.6,0,0,0,.1-.4h0a7.39,7.39,0,0,0,2.1,0,2.92,2.92,0,0,0,.9-.2c.2,0,.3-.1.5-.2h0c.1,0,.1,0,.2-.1h0c.1,0,.1-.1.2-.1h0c.1-.1.3-.1.4-.2h0a.76.76,0,0,1,.4-.2h0c.1,0,.1-.1.2-.1h0c.1,0,.1-.1.2-.1h0c.1,0,.1-.1.2-.2a.1.1,0,0,0,.1-.1h0l.1-.1h0a1.38,1.38,0,0,1,.4-.3h0l.3-.3h0a1.38,1.38,0,0,0,.3-.4h0l.1-.1c0-.1.1-.1.2-.2a.1.1,0,0,1,.1-.1h0c0-.1.1-.1.1-.2s.1-.1.1-.2h0c0-.1.1-.1.1-.2s.1-.1.1-.2h0l1.5,5.4Z"/><path class="cls-4" d="M74.12,67.67a3.19,3.19,0,0,1,.3,1.4,3.09,3.09,0,0,1-1.7,2.8,3.17,3.17,0,0,1-.9,4.3h-.1a3.18,3.18,0,0,1-.7,4.4,3,3,0,0,1-1.8.6h-1.4l-.7,2.5a2.23,2.23,0,0,1-2,1.6c-.5,0-.2,0-10.1-2.7a1.86,1.86,0,0,1-1.2-.9h0c.8-.7,2.9-.4,3.3-.4h.1l7.9,2.1c.2.1.4,0,.4-.2l.5-2h-9.4a15.67,15.67,0,0,1-3.2-.2h0a4.21,4.21,0,0,1-2.7-3.2h-3.1a.88.88,0,0,1-.9-.8.82.82,0,0,1,.8-.9h4a.9.9,0,0,1,.9.9v.3a2.22,2.22,0,0,0,2.2,2.2h14.6a1.3,1.3,0,1,0,0-2.6.77.77,0,0,1-.8-.9,1,1,0,0,1,.8-.9h.9a1.35,1.35,0,0,0,.1-2.7h-.1a.85.85,0,1,1-.1-1.7h1.3a1.35,1.35,0,1,0,.1-2.7h-.1a1,1,0,0,1-.9-.9.82.82,0,0,1,.9-.8h2.1a1.3,1.3,0,0,0,0-2.6H58.32a.9.9,0,0,1-.9-.9.82.82,0,0,1,.9-.8h.1l.4-1.6A5.46,5.46,0,0,0,57,61h0a6.15,6.15,0,0,0-3.2,5.2.9.9,0,0,1-.9.9h-5.2a.88.88,0,0,1-.9-.8,1,1,0,0,1,.8-.9h4.5a7.72,7.72,0,0,1,7.4-6.8,11.63,11.63,0,0,1,4.3-4.5c.2-.6.3-1.2.5-1.7a.89.89,0,1,1,1.7.5,16.7,16.7,0,0,1-.6,2,1,1,0,0,1-.4.5,10,10,0,0,0-4.1,4.3v.1a.6.6,0,0,0-.1.4l-.5,1.8h.8a7,7,0,0,1,6,0h4.1v-.5a10.78,10.78,0,0,0-1.5-4.9,1.48,1.48,0,0,1-.1-.7c.5-1.9,1.4-5.7,1.7-7.5a1.09,1.09,0,0,1,.8-.8,1.06,1.06,0,0,0,1-1.2,1.08,1.08,0,0,0-.8-1l-4-1.1a1,1,0,0,0-1.3.8,1.37,1.37,0,0,0,.4,1.2.91.91,0,0,1,.3,1.1c-.2.5-.4,1.2-.7,2a.81.81,0,0,1-1.1.5.85.85,0,0,1-.5-1.1c.2-.6.4-1.1.5-1.5a3,3,0,0,1,.3-4.1,3.16,3.16,0,0,1,1.9-.7,1.48,1.48,0,0,1,.7.1l4,1.1a2.88,2.88,0,0,1,2,3.5,3.07,3.07,0,0,1-1,1.5,4.05,4.05,0,0,1-.9.5c-.3,1.9-1,4.9-1.5,6.8a11.23,11.23,0,0,1,1.5,5.4v.5h.5a3.12,3.12,0,0,1,3.1,3.1A3,3,0,0,1,74.12,67.67Z"/></g><g id="Tap"><path class="cls-4" d="M138.12,152c-4.3,9.1-9.2,17.8-14.1,26.5l-8.2,13a1.15,1.15,0,0,0-.8,1.3l-1.3,2.1a29.81,29.81,0,0,0-3,4,4.35,4.35,0,0,0-.4.7,27.93,27.93,0,0,0-1.8,3.4,9.74,9.74,0,0,0-.5,1.1l-1.6,2.6a6.24,6.24,0,0,0-1.6,1c-.1.1-.2.1-.2.2a6.19,6.19,0,0,1,1.7-1.1l-2.2,3.5h0c-.86,1.43-1.72,2.77-2.58,4.2l-.2.4c-.1.2-.3.4-.4.6s-.1.1-.1.2c-3.5,2.3-7.3.6-9.1-4.8a25,25,0,0,1-.1-16c1.6-4.5,1-8.9,2.3-13.3,2.3-7.9,3.7-16.1,5.4-24.1.6-2.6,2.7-3.3,4.6-4.1a50.61,50.61,0,0,0,18.5-13.1c9.3-10.9,16.2-23.5,18.3-38.1,4.3-29.8-3.7-55.2-28-73.9-15-11.5-32.3-14.2-50.5-9.3-18.4,4.9-31.3,16.6-39.7,33.3-14.4,28.4-10.1,62.8,9,85,5.9,6.8,12.5,12.6,20.8,16.3a6.58,6.58,0,0,1,4.2,5.5c2.7,14.9,5.8,29.8,8.7,44.6.7,3.6-1.5,6.2-3.3,8.7a31.41,31.41,0,0,0-2.8,4.6c-1.6,1.7-2.5.8-3.1-.3-.2-.3-.4-.7-.6-1-13.1-20.1-26.4-40.1-36.9-61.9-7.8-16.2-15.2-32.6-17.5-50.6-2.8-21.7,0-42.6,10.2-62.5,15.5-30.3,47.1-44.9,79.1-39.6,18.7,3.1,34.8,11.4,46.4,27,10.6,14.2,16.2,30.3,18.4,47.9C158.62,103.67,149.42,128,138.12,152Z"/><path class="cls-4" d="M88.92,239.57c-3.4-4.4-7.9-5.5-12.5-5.1-6.6.6-12,3.9-14.4,10.7a39.73,39.73,0,0,0-2.4,14.4v.1l.1.7v.35l.18,3,.1.7v.11l.16,1.92,0,.37.1,1.5v.1l0,.65v0l.37,5.28h0c0,.35,0,.69,0,1l.3,3.4v.06l.44,5.26.7,8.17,0,.33.53,7,.1.7c.2,2,.3,3.9.5,5.8v.4c.2,3.3,1.8,4.2,4.7,4.4a114.25,114.25,0,0,0,19.4,0c3.7-.4,5.3-1.8,5.5-5.9.8-16.6,2.1-33.2,3.3-49.8A42.53,42.53,0,0,0,88.92,239.57Zm-13.3,19.2c0,14.8.2,29.6.2,44.4,0,2,1.4,3.3,2.2,5-.6.3-1.1.7-1.5.6-3.4-.4-7.6,1-10.2-1.1s0-6.1-.2-9.3c-.6-11.5-1-22.9-1.5-34.4-.2-5.9.7-11.6,3.9-16.7,3.6-5.7,8.2-7.1,15.4-4.3C76.92,246.17,75.62,252.27,75.62,258.77Z"/><path class="cls-4" d="M96.22,227.27c-.1.2-.1.4-.2.6a4.88,4.88,0,0,1-.3.7c-.4.8-1.1.4-2.6-.6-8.5-5.6-17.8-6.7-27.3-2.4-3.3,1.5-4.9,2-5.5,1l-.2-.4a17.15,17.15,0,0,1-.1-4.8,5.16,5.16,0,0,0,1.7-3.7c2.3-1.9,4.1-2.5,7-.2,6,4.9,12.5,3.1,18.1-.7,3.8-2.5,5.2-.9,6.5,2.1.9,2.1,1.8,4.3,2.6,6.4C96,225.87,96.12,226.57,96.22,227.27Z"/><path class="cls-4" d="M95.62,152.77c-2.4,17.4-5.7,34.7-8.6,52-.5,3-5.4,6-8.6,5.3-3.5-.8-3.6-3.6-3.8-6.5a228.65,228.65,0,0,0-2.6-23.2c-1.3-8.6-1-17.5-1.4-26.2-.1-2.5,1.6-3.1,3.5-3.5,2.9-.6,5.8-1,8.8-1.4,0-.3.1-.5.1-.8a36.16,36.16,0,0,1-4.7-1.3c-6.7-2.2-9.6-8.6-7.2-15.3,1.1-3.1.6-6.5,2.2-9.5.2-.3.8-.9-.1-1.1a6.13,6.13,0,0,0-1.8-.1c-.3,2.4-3,3.1-3.4,5.7-1.7,12.1-1.1,24.2,0,36.3,1.3,13.5,2.8,26.9,4.9,40.3.3,1.6-.1,3.3-1.8,3.5-1.9.3-2.9-1-3.2-3-.9-6-2.4-11.9-2.8-17.9-.8-10-2.9-19.8-4.3-29.7a62.91,62.91,0,0,1,2.2-28.6c.9-2.8,2.6-5.4,3.8-8.2,2-4.5,5.8-6.4,10.8-6.3,6.1.2,10.6,2.7,12.9,8.4C94.52,131.87,97.12,142.17,95.62,152.77Z"/><path class="cls-4" d="M86.82,211c-3.3,4.8-13.3,5-18.8,0A26.44,26.44,0,0,0,86.82,211Z"/><path class="cls-4" d="M99.12,245.87a1.29,1.29,0,0,1-.6,1.5c-1.9,1.2-1.7-1.3-2.4-2.2a22.35,22.35,0,0,1-2.7-4.1c-4.9-8.2-12.7-11-21.9-8.3-7.3,2.1-10.6,8-13.2,14-1.4,3.2-2.1.8-3.1.6a1.7,1.7,0,0,1,.1-.7h0c.1-.5.1-1.1.2-1.6h0a11.8,11.8,0,0,1,.4-2,14.16,14.16,0,0,1,.7-2.2h0c.1-.3.2-.5.3-.8,0-.1.1-.1.1-.2l.6-1.2c.3-.6.6-1.2.9-1.7h0c.3-.5.6-.9.9-1.4a16.87,16.87,0,0,1,2.2-2.5l.1-.1c6.3-5.7,13.6-8,22.1-6a8.8,8.8,0,0,1,1.5.5h0a19.85,19.85,0,0,1,8.2,5.3c.2.2.3.4.5.5h0a21.47,21.47,0,0,1,5.1,12.6Z"/></g></g></g></svg>